<?xml version="1.0" encoding="UTF-8"?>
<svg width="154px" height="157px" viewBox="0 0 154 157" version="1.1" xmlns="http://www.w3.org/2000/svg" xmlns:xlink="http://www.w3.org/1999/xlink">
    <!-- Generator: sketchtool 53.2 (72643) - https://sketchapp.com -->
    <title>DD0CB3F6-3407-478C-B3EF-311CD4AC0792</title>
    <desc>Created with sketchtool.</desc>
    <defs>
        <polygon id="path-1" points="0 0.131021645 66.9939438 0.131021645 66.9939438 73.7647084 0 73.7647084"></polygon>
        <polygon id="path-3" points="0 157 154 157 154 0 0 0"></polygon>
    </defs>
    <g id="Page-1" stroke="none" stroke-width="1" fill="none" fill-rule="evenodd">
        <g id="UI-green---Home-Page---V1" transform="translate(-292.000000, -2287.000000)">
            <g id="breakdown_anticipation" transform="translate(292.000000, 2287.000000)">
                <path d="M126,54.0349413 L126,146.957476 C126,150.179381 123.615413,152.791128 120.673665,152.791128 L105.650801,152.791128 C104.469234,154.723563 103.21402,156.252657 100.927737,156.813603 C98.6638685,157.371334 96.1758546,156.655998 94.4531372,154.955146 C93.8095197,154.320222 93.2747728,153.58012 92.7944613,152.791128 L73.6556469,152.791128 C72.4740805,154.723563 71.2188663,156.252657 68.9325833,156.813603 C66.6687148,157.371334 64.180701,156.655998 62.4579836,154.955146 C61.8143661,154.320222 61.2796192,153.58012 60.7993077,152.791128 L58.6772912,152.791128 C54.9894591,152.791128 52,149.516795 52,145.477916 L52,52.0857806 C52,46.5158772 56.1229944,42 61.2088533,42 L115.011752,42 C121.080329,42 126,47.3881748 126,54.0349413" id="Fill-1" fill="#9CE557"></path>
                <g id="Group-5">
                    <mask id="mask-2" fill="white">
                        <use xlink:href="#path-1"></use>
                    </mask>
                    <g id="Clip-4"></g>
                    <path d="M56.6053728,0.843567965 C53.1233243,3.95445108 47.9958728,8.58633853 44.773368,11.9576632 C42.6131058,14.2177065 40.4873194,16.5712909 39.0796689,19.3483732 C37.3955621,22.6713255 36.6774262,26.6673255 33.8256981,29.0965117 C32.3253534,30.3746935 30.3182806,31.1236632 29.2137563,32.7465377 C28.3112078,34.0727714 28.1765573,35.7501048 27.6229942,37.2506069 C26.2468922,40.9823212 27.475334,42.695213 24.4788728,45.350884 C20.0292272,49.2940268 19.4379359,49.4423472 15.514533,53.6532996 C13.1340816,56.2083818 1.97728058,62.6816199 0.55922233,65.8556113 C0.136406796,66.8022346 -0.194365049,67.8750745 0.131853398,68.8582173 C0.358547573,69.5418364 0.873732039,70.0893082 1.37395534,70.6127541 C2.18185825,71.4581481 2.98976117,72.3032216 3.79766408,73.1482952 C4.0445233,73.4064944 4.31447476,73.6778277 4.66736311,73.7473429 C5.05993107,73.824226 5.45022233,73.6323385 5.79758155,73.4366069 C7.22344563,72.6334987 8.54653301,71.6670139 9.86571748,70.7037325 C12.1583534,69.0292823 16.3445524,65.8367108 18.1011883,63.6211957 C19.7026835,61.6020528 22.7085767,57.5528753 24.114601,55.3966242 C25.9600282,52.5657238 26.7757369,52.9043299 29.1594408,50.4946848 C32.2037126,47.4171177 35.3966204,44.5884597 38.963232,42.1109013 C40.3481155,41.1489013 40.6518922,39.685239 41.6370524,38.3516372 C42.8661447,36.6880788 44.423732,35.2811177 46.0675087,34.0234381 C48.4951204,32.1660701 51.1419456,30.5950918 53.5194699,28.675897 C58.4995864,24.656832 62.1309214,19.25291 65.2106447,13.6840095 C65.8773922,12.4785463 66.5291786,11.2429706 66.8284019,9.90232121 C67.1064845,8.65585368 67.0859942,6.90195758 66.3620039,5.77594026 C65.5495476,4.51249437 64.3298874,3.75135152 63.5746738,2.69613074 C62.683834,1.45190563 59.0206252,-1.11502944 56.6053728,0.843567965" id="Fill-3" fill="#9CE557" mask="url(#mask-2)"></path>
                </g>
                <path d="M100,124.666667 C99.0808241,124.666667 98.333439,123.919305 98.333439,122.999842 C98.333439,122.080695 99.0808241,121.333016 100,121.333016 C100.919493,121.333016 101.666878,122.080695 101.666878,122.999842 C101.666878,123.919305 100.919493,124.666667 100,124.666667 M100,118 C97.2418384,118 95,120.24462 95,122.999842 C95,125.75538 97.2418384,128 100,128 C102.758479,128 105,125.75538 105,122.999842 C105,120.24462 102.758479,118 100,118" id="Fill-6" fill="#1C420C"></path>
                <path d="M66,124.666667 C65.0805071,124.666667 64.333439,123.919305 64.333439,122.999842 C64.333439,122.080695 65.0805071,121.333016 66,121.333016 C66.9194929,121.333016 67.666561,122.080695 67.666561,122.999842 C67.666561,123.919305 66.9194929,124.666667 66,124.666667 M66,118 C63.2415214,118 61,120.24462 61,122.999842 C61,125.75538 63.2415214,128 66,128 C68.7584786,128 71,125.75538 71,122.999842 C71,120.24462 68.7584786,118 66,118" id="Fill-8" fill="#1C420C"></path>
                <mask id="mask-4" fill="white">
                    <use xlink:href="#path-3"></use>
                </mask>
                <g id="Clip-11"></g>
                <path d="M77.4000647,124.666667 L87.5999353,124.666667 L87.5999353,121.333016 L77.4000647,121.333016 L77.4000647,124.666667 Z M89.299806,118 L75.6998707,118 C74.7594135,118 74,118.747044 74,119.666825 L74,126.333175 C74,127.252639 74.7594135,128 75.6998707,128 L89.299806,128 C90.2376769,128 91,127.252639 91,126.333175 L91,119.666825 C91,118.747044 90.2376769,118 89.299806,118 L89.299806,118 Z" id="Fill-10" fill="#1C420C" mask="url(#mask-4)"></path>
                <path d="M54.3024551,43.9062508 C53.7300129,42.8901162 52.3333584,42.6897879 51.4921656,43.5026956 C51.4833487,43.5110694 51.4748584,43.5194433 51.4693071,43.5281392 C50.9654404,44.0135005 50.8537603,44.7700456 51.2002298,45.3739291 C54.9206143,51.9168049 56.9066916,59.320255 56.9210598,67.0261298 C56.9236722,67.954661 57.6365309,68.7704673 58.5779746,68.8042848 C59.5510937,68.8352036 60.3553864,68.067708 60.3553864,67.1108346 C60.3553864,58.8603373 58.2546901,50.9286906 54.3024551,43.9062508 L54.3024551,43.9062508 Z M99.8486733,124.612777 C98.9016782,124.612777 98.1316733,123.853334 98.1316733,122.919327 C98.1316733,121.984999 98.9016782,121.225555 99.8486733,121.225555 C100.795995,121.225555 101.566,121.984999 101.566,122.919327 C101.566,123.853334 100.795995,124.612777 99.8486733,124.612777 L99.8486733,124.612777 Z M99.8486733,117.838332 C97.007035,117.838332 94.6973466,120.11924 94.6973466,122.919327 C94.6973466,125.719092 97.007035,128 99.8486733,128 C102.690638,128 105,125.719092 105,122.919327 C105,120.11924 102.690638,117.838332 99.8486733,117.838332 L99.8486733,117.838332 Z M77.5263665,124.612777 L87.8290199,124.612777 L87.8290199,121.225233 L77.5263665,121.225233 L77.5263665,124.612777 Z M89.5460199,117.838332 L75.8090399,117.838332 C74.8591059,117.838332 74.0920399,118.597776 74.0920399,119.532105 L74.0920399,126.306228 C74.0920399,127.240878 74.8591059,128 75.8090399,128 L89.5460199,128 C90.4933416,128 91.2633465,127.240878 91.2633465,126.306228 L91.2633465,119.532105 C91.2633465,118.597776 90.4933416,117.838332 89.5460199,117.838332 L89.5460199,117.838332 Z M65.5067131,124.612777 C64.5593915,124.612777 63.7893865,123.853334 63.7893865,122.919327 C63.7893865,121.984999 64.5593915,121.225555 65.5067131,121.225555 C66.4537082,121.225555 67.2237131,121.984999 67.2237131,122.919327 C67.2237131,123.853334 66.4537082,124.612777 65.5067131,124.612777 L65.5067131,124.612777 Z M65.5067131,117.838332 C62.6647482,117.838332 60.3553864,120.11924 60.3553864,122.919327 C60.3553864,125.719092 62.6647482,128 65.5067131,128 C68.3483514,128 70.6577132,125.719092 70.6577132,122.919327 C70.6577132,120.11924 68.3483514,117.838332 65.5067131,117.838332 L65.5067131,117.838332 Z" id="Fill-12" fill="#1C420C" mask="url(#mask-4)"></path>
                <path d="M68.3547678,17.4635817 L68.3097332,17.5086147 L66.3220973,15.5184776 C65.8090241,15.005423 64.9745967,15.005423 64.4644186,15.5184776 C64.2164064,15.7664808 64.0780857,16.0965084 64.0780857,16.4458358 C64.0780857,16.7983799 64.2135113,17.1280858 64.4644186,17.376089 L66.4517327,19.3665478 L51.8177275,34.0000227 C51.144138,34.6735877 50.3544235,35.1924323 49.4778565,35.5420814 L44.0904272,37.7747534 C44.0257703,37.8001649 43.9665819,37.8252547 43.9073936,37.8506662 L38.1448901,32.0886933 C39.1231068,29.7289638 40.3860066,26.687306 40.4763976,26.4730776 L40.4931247,26.4338346 C40.8427865,25.5907524 41.3503912,24.8325896 42.0014634,24.1841143 L56.6354686,9.55031781 L61.5439224,14.4585936 C61.7919345,14.7065968 62.1216524,14.8420175 62.4742093,14.8420175 C62.8235494,14.8420175 63.153589,14.7065968 63.4016011,14.4585936 C63.6496133,14.2102688 63.787934,13.8805629 63.787934,13.5283404 C63.787934,13.1786913 63.6496133,12.8486637 63.4016011,12.6006605 L58.4934691,7.69270637 L58.5385037,7.64767337 C59.1953661,6.99083483 60.0751499,6.62735415 61.0138004,6.62735415 C61.9524509,6.62735415 62.8322347,6.99083483 63.489097,7.64767337 L68.3547678,12.5105945 C69.0116302,13.1700064 69.3725506,14.0497583 69.3725506,14.9883748 C69.3725506,15.9273129 69.0116302,16.8067432 68.3547678,17.4635817 L68.3547678,17.4635817 Z M42.6724795,41.391547 L39.7545567,44.3090424 C39.4727685,44.591142 38.9738491,44.591142 38.6946344,44.3090424 L31.6917483,37.3067318 C31.5482808,37.1655212 31.4720436,36.9770259 31.4720436,36.7769507 C31.4720436,36.5765538 31.5482808,36.3877369 31.6917483,36.2468479 L34.6096711,33.3290309 C34.7476701,33.1881419 34.9368156,33.1119075 35.1397931,33.1119075 C35.3398756,33.1119075 35.5286994,33.1881419 35.6670201,33.3261359 L35.700796,33.3599107 L42.6724795,40.3316631 C42.9655263,40.6246993 42.9655263,41.0985108 42.6724795,41.391547 L42.6724795,41.391547 Z M17.4357124,59.6250889 C17.2919232,59.7688729 17.18191,59.9464316 17.1198266,60.1381435 L15.7581722,64.2229587 L11.0697448,68.9108945 L7.08932625,64.9302985 L11.7774319,60.2423627 L15.8623952,58.8807577 C16.0541141,58.8161032 16.2316792,58.706094 16.3754684,58.5648833 L32.8053906,42.1358783 L33.8656346,43.1957622 L17.4357124,59.6250889 Z M8.14924859,71.8287115 L4.17140346,67.8481155 L5.23164748,66.7882316 L9.21206602,70.7685059 L8.14924859,71.8287115 Z M70.2124466,10.6555564 L65.3467758,5.78974027 C64.1935674,4.63689535 62.6543478,4 61.0138004,4 C59.3729312,4 57.8337116,4.63689535 56.6805033,5.78974027 L40.1437846,22.3265029 C39.2472737,23.2200864 38.5479501,24.2629221 38.0689746,25.4273469 C38.0265133,25.5232029 37.9869472,25.6190588 37.9502761,25.7036566 L35.929186,30.574941 C35.6724885,30.5157548 35.4074275,30.4845533 35.1397931,30.4845533 C34.2349186,30.4845533 33.3860157,30.8342024 32.7519924,31.4714194 L29.8340696,34.3889148 C29.1971511,35.0261318 28.8445943,35.8746823 28.8445943,36.7769507 C28.8445943,37.6788975 29.1971511,38.5274479 29.8340696,39.1643433 L30.9477118,40.2779452 L14.7374943,56.4872535 L10.6528527,57.8488585 C10.4608122,57.9138347 10.2835687,58.0238439 10.1394579,58.1676279 L1.38343776,66.9207573 C1.13542559,67.1687605 1,67.4984664 1,67.8510105 C1,68.200338 1.13542559,68.5303656 1.38343776,68.7783688 L7.22185675,74.6136812 C7.46697384,74.859111 7.80537697,75 8.14924859,75 C8.50180546,75 8.83152334,74.8616843 9.07953552,74.6136812 L17.8329822,65.8605517 C17.9767714,65.7167678 18.0867846,65.5392091 18.1517631,65.3474971 L19.5134175,61.2630036 L35.7233134,45.0533736 L36.8369556,46.1669755 C37.473874,46.8038708 38.3224552,47.15352 39.2247564,47.15352 C40.1296309,47.15352 40.975317,46.8038708 41.6125571,46.1669755 L44.5304799,43.2491585 C45.373271,42.4092929 45.7029889,41.2081984 45.4237741,40.0666117 C46.7629112,39.5110974 48.8689238,38.6374571 50.4448144,37.9831919 C51.6597846,37.5010171 52.7480144,36.7849923 53.6754063,35.8576341 L70.2124466,19.3211931 C71.365655,18.1654533 72,16.6262895 72,14.9883748 C72,13.3478868 71.365655,11.8084013 70.2124466,10.6555564 L70.2124466,10.6555564 Z" id="Fill-13" fill="#1C420C" mask="url(#mask-4)"></path>
                <path d="M18.6906278,90 C18.2578837,90 17.8254611,89.8371326 17.4952766,89.5110802 C16.8349078,88.8589756 16.8349078,87.8020834 17.4952766,87.1499788 L33.5064884,71.3394565 C33.8234912,71.0261034 34.2533418,70.8505368 34.7018396,70.8505368 L69.5911128,70.8505368 L88.4447399,52.2328531 C88.7617426,51.9195 89.1919147,51.7436159 89.6400911,51.7436159 L129.562507,51.7436159 L151.174958,32.4316027 C151.867799,31.8128335 152.936799,31.8658527 153.563088,32.5490704 C154.189378,33.2329231 154.136008,34.2885453 153.44381,34.9073146 L131.348139,54.6511011 C131.037245,54.9288964 130.633436,55.0825569 130.213873,55.0825569 L90.3403264,55.0825569 L71.4866993,73.7002405 C71.1696965,74.0132762 70.7398459,74.1891603 70.2913481,74.1891603 L35.402075,74.1891603 L19.885979,89.5110802 C19.5557946,89.8371326 19.123372,90 18.6906278,90" id="Fill-14" fill="#1C420C" mask="url(#mask-4)"></path>
                <path d="M66,124.666667 C65.0805071,124.666667 64.333439,123.919305 64.333439,122.999842 C64.333439,122.080695 65.0805071,121.333016 66,121.333016 C66.9194929,121.333016 67.666561,122.080695 67.666561,122.999842 C67.666561,123.919305 66.9194929,124.666667 66,124.666667 M66,118 C63.2415214,118 61,120.24462 61,122.999842 C61,125.75538 63.2415214,128 66,128 C68.7584786,128 71,125.75538 71,122.999842 C71,120.24462 68.7584786,118 66,118" id="Fill-15" fill="#1C420C" mask="url(#mask-4)"></path>
                <path d="M77.4000647,124.666667 L87.5999353,124.666667 L87.5999353,121.333016 L77.4000647,121.333016 L77.4000647,124.666667 Z M89.299806,118 L75.6998707,118 C74.7594135,118 74,118.747044 74,119.666825 L74,126.333175 C74,127.252639 74.7594135,128 75.6998707,128 L89.299806,128 C90.2376769,128 91,127.252639 91,126.333175 L91,119.666825 C91,118.747044 90.2376769,118 89.299806,118 L89.299806,118 Z" id="Fill-16" fill="#1C420C" mask="url(#mask-4)"></path>
                <path d="M100,124.666667 C99.0808241,124.666667 98.333439,123.919305 98.333439,122.999842 C98.333439,122.080695 99.0808241,121.333016 100,121.333016 C100.919493,121.333016 101.666878,122.080695 101.666878,122.999842 C101.666878,123.919305 100.919493,124.666667 100,124.666667 M100,118 C97.2418384,118 95,120.24462 95,122.999842 C95,125.75538 97.2418384,128 100,128 C102.758479,128 105,125.75538 105,122.999842 C105,120.24462 102.758479,118 100,118" id="Fill-17" fill="#1C420C" mask="url(#mask-4)"></path>
                <path d="M47.3914025,49.9496938 C47.3914025,48.8118941 46.2308379,48.0447437 45.1876519,48.4926251 L45.1683038,48.5010269 C44.4595178,48.8047848 44,49.5027818 44,50.2754257 L44,67.7066082 C44,68.6450264 44.7590911,69.4057139 45.6958625,69.4057139 C46.6323114,69.4057139 47.3914025,68.6450264 47.3914025,67.7066082 L47.3914025,49.9496938 Z M47.3914025,135.406177 L118.608598,135.406177 L118.608598,111.617082 L47.3914025,111.617082 L47.3914025,135.406177 Z M101.65223,143.902029 C101.65223,144.963566 100.677407,145.800193 99.5777894,145.560418 C98.7938681,145.38915 98.2608275,144.653345 98.2608275,143.849679 L98.2608275,138.804389 L101.65223,138.804389 L101.65223,143.902029 Z M67.7391725,143.902029 C67.7391725,144.963566 66.7643499,145.800193 65.6647319,145.560418 C64.8811331,145.38915 64.34777,144.653345 64.34777,143.849679 L64.34777,138.804389 L67.7391725,138.804389 L67.7391725,143.902029 Z M118.608598,58.8733916 L118.608598,108.210146 C118.608598,108.21467 118.604728,108.218548 118.600213,108.218548 L108.443419,108.218548 C108.438582,108.218548 108.434713,108.21467 108.434713,108.210146 L108.434713,67.5165979 C108.434713,64.9792496 108.643995,62.4729233 109.056754,60.0202394 C109.070621,59.9326666 109.079005,59.847679 109.079005,59.7626914 C109.079005,58.9583792 108.445999,58.2700766 107.61532,58.2474563 C106.645657,58.2190194 105.795307,58.9131386 105.642779,59.8728845 C105.24711,62.3792107 105.043632,64.9311007 105.043632,67.5165979 L105.043632,108.210146 C105.043632,108.21467 105.039763,108.218548 105.034926,108.218548 L60.9650742,108.218548 C60.9605596,108.218548 60.95669,108.21467 60.95669,108.210146 L60.95669,74.3863749 C60.95669,73.5129092 60.3307784,72.7283088 59.4649501,72.6258713 C58.4365977,72.5046913 57.5652875,73.3080341 57.5652875,74.3136668 L57.5652875,108.210146 C57.5652875,108.21467 57.5614179,108.218548 57.5569033,108.218548 L47.3997867,108.218548 C47.3952721,108.218548 47.3914025,108.21467 47.3914025,108.210146 L47.3914025,78.5359024 C47.3914025,77.5978074 46.6323114,76.8367967 45.6958625,76.8367967 C44.7590911,76.8367967 44,77.5978074 44,78.5359024 L44,137.10496 C44,138.042732 44.7574788,138.804389 45.6958625,138.804389 L60.9483058,138.804389 C60.9528204,138.804389 60.95669,138.808266 60.95669,138.813114 L60.95669,143.769215 C60.95669,146.535998 63.098849,148.897878 65.8598254,148.996761 C68.7481768,149.098875 71.130575,146.773511 71.130575,143.902029 L71.130575,138.813114 C71.130575,138.808266 71.1341221,138.804389 71.1389592,138.804389 L94.8610408,138.804389 C94.8658779,138.804389 94.869425,138.808266 94.869425,138.813114 L94.869425,143.769215 C94.869425,146.535998 97.0115841,148.897878 99.7728829,148.996761 C102.661234,149.098875 105.043632,146.773511 105.043632,143.902029 L105.043632,138.813114 C105.043632,138.808266 105.04718,138.804389 105.052017,138.804389 L120.296076,138.804389 C121.237039,138.804389 122,138.039823 122,137.096558 L122,58.8733916 C122,57.9349734 121.240909,57.1739627 120.304138,57.1739627 C119.368011,57.1739627 118.608598,57.9349734 118.608598,58.8733916 L118.608598,58.8733916 Z M121.991616,34.5320388 C121.988714,34.5065102 121.982909,34.4867982 121.980329,34.464178 C121.977427,34.4328327 121.974525,34.3989023 121.966141,34.3678802 C121.960336,34.3394433 121.954854,34.3139147 121.946148,34.285801 C121.940666,34.2602724 121.935184,34.2318354 121.926477,34.2063069 C121.918093,34.1781931 121.909386,34.1526645 121.8981,34.1271359 C121.889716,34.1016073 121.881332,34.0760787 121.870045,34.0479649 C121.861661,34.0250215 121.847472,34.0024012 121.838766,33.9768727 C121.8249,33.9516672 121.813613,33.9261386 121.799425,33.8977017 C121.787816,33.8750814 121.773949,33.8553695 121.759761,33.8327492 C121.745572,33.8068975 121.731384,33.781692 121.714615,33.7561634 C121.697524,33.7335431 121.680434,33.7109229 121.663665,33.6883026 C121.646574,33.6653592 121.632708,33.6427389 121.615617,33.623027 C121.58724,33.5861882 121.553381,33.5522578 121.519522,33.5183274 C121.51662,33.5096024 121.508235,33.5041089 121.502753,33.4982923 L121.485663,33.4814887 C121.448901,33.4475583 121.415042,33.416213 121.37828,33.3851909 C121.358287,33.3709725 121.338617,33.3541688 121.318946,33.3399504 C121.293471,33.3228236 121.270898,33.3031117 121.245423,33.2859849 C121.222851,33.2717664 121.197376,33.257548 121.174803,33.2436527 C121.15223,33.2294342 121.126755,33.2152157 121.104182,33.2009973 C121.078707,33.1867788 121.056134,33.178377 121.030659,33.1670669 C121.005184,33.1528484 120.979709,33.1415383 120.951655,33.1302281 C120.928759,33.1218263 120.906186,33.1131014 120.883614,33.1046995 C120.855236,33.0933894 120.824279,33.0820793 120.795902,33.0736775 C120.773329,33.0652756 120.750757,33.0623673 120.728184,33.0565507 C120.697227,33.0481489 120.665947,33.0394239 120.63499,33.0339304 C120.609515,33.0284369 120.58404,33.0255286 120.558565,33.0226203 C120.53051,33.0171268 120.499231,33.0113101 120.471176,33.0084018 C120.42861,33.0054935 120.386367,33.0029083 120.343801,33.0029083 C120.329935,33.0029083 120.318326,33 120.304138,33 L64.265863,33 C63.4832316,33 62.734137,33.3144218 62.1859404,33.8692648 L62.1717517,33.8863916 C61.2533611,34.8180237 61.911842,36.3982113 63.2200972,36.3982113 L116.421293,36.3982113 C116.424195,36.4046743 116.424518,36.4053205 116.42742,36.4117835 C113.691596,39.6348493 111.41916,43.163935 109.64139,46.9195466 C109.53691,47.1373476 109.488862,47.3641966 109.488862,47.5849058 C109.488862,48.3523794 110.068339,49.0574856 110.90192,49.1340714 C111.732922,49.2077488 112.518455,48.7572823 112.883167,48.0069355 C114.414893,44.8465602 116.325197,41.8613304 118.594731,39.1113515 C118.597311,39.1029497 118.608598,39.1087663 118.608598,39.1142598 L118.608598,48.0437742 C118.608598,48.9821924 119.368011,49.7428799 120.304138,49.7428799 C121.240909,49.7428799 122,48.9821924 122,48.0437742 L122,34.6991057 C122,34.6454633 121.997098,34.5885895 121.991616,34.5320388 L121.991616,34.5320388 Z" id="Fill-18" fill="#1C420C" mask="url(#mask-4)"></path>
                <path d="M13.8016446,94.9404102 C12.7693892,95.2453699 11.790062,94.3317144 12.0392271,93.2957079 L13.1482439,88.6800194 L14.2575702,84.0643309 C14.5064258,83.0286304 15.7968224,82.6475073 16.5802222,83.378554 L20.0703906,86.6355355 L23.560559,89.8928229 C24.3439588,90.6235638 24.0328894,91.9186483 23.0003245,92.2233021 L18.4011393,93.5820091 L13.8016446,94.9404102 Z" id="Fill-19" fill="#FFFFFF" mask="url(#mask-4)"></path>
                <path d="M16.0779589,83.7400359 C16.0732262,83.7400359 16.0675469,83.7409733 16.0599745,83.7431605 C16.0356797,83.7503471 16.0337866,83.7587835 16.0296849,83.7747189 L13.7683793,93.2050519 C13.7645931,93.2212998 13.7627,93.2294237 13.7809999,93.246609 C13.7992999,93.2637942 13.8071878,93.2609821 13.8239101,93.2569201 L23.201056,90.4813445 C23.2174628,90.4763452 23.2253507,90.4738455 23.2313456,90.4494737 C23.2373404,90.4251018 23.23103,90.4191651 23.2187249,90.4076041 L16.1032002,83.7531592 C16.0943658,83.7453477 16.0886865,83.7400359 16.0779589,83.7400359 M13.7992999,96 C13.0956984,96 12.4154452,95.7359719 11.8825381,95.2375994 C11.1439143,94.546752 10.8435427,93.5506318 11.0782869,92.5720094 L13.3395926,83.1419889 C13.5740212,82.1636789 14.2949761,81.4075275 15.2680285,81.1194401 C16.2413964,80.8313526 17.2630383,81.0716338 18.0013466,81.7621688 L25.1171868,88.4166137 C25.8558105,89.1071487 26.1564976,90.1038937 25.9217535,91.0825161 C25.6870093,92.0608261 24.9657389,92.8169775 23.992371,93.1047525 L14.6158562,95.8803281 C14.3451432,95.9606301 14.0703284,96 13.7992999,96" id="Fill-20" fill="#1C420C" mask="url(#mask-4)"></path>
            </g>
        </g>
    </g>
</svg>