<?xml version="1.0" encoding="UTF-8"?>
<svg width="190px" height="157px" viewBox="0 0 190 157" version="1.1" xmlns="http://www.w3.org/2000/svg" xmlns:xlink="http://www.w3.org/1999/xlink">
    <!-- Generator: sketchtool 53.2 (72643) - https://sketchapp.com -->
    <title>7E07CD76-44FB-4DFA-A233-CBB14F91AE66</title>
    <desc>Created with sketchtool.</desc>
    <g id="Page-1" stroke="none" stroke-width="1" fill="none" fill-rule="evenodd">
        <g id="UI-green---Home-Page---V1" transform="translate(-963.000000, -2288.000000)">
            <g id="countries-in-europe" transform="translate(963.000000, 2288.000000)">
                <path d="M170.969875,72.5016767 C166.911425,75.2042215 161.676431,76.0288651 158.149232,79.408679 C153.985263,83.4016685 157.523013,85.4645022 154.970654,90.6491425 C153.309531,94.0232411 153.579418,99.2454394 154.655313,100.641618 C155.697929,101.992891 157.434945,102.580755 158.766522,103.654425 C162.211741,106.434535 162.114744,112.149887 159.411816,115.664828 C156.708483,119.179361 152.163019,120.78415 147.767718,121.220558 C143.368358,121.657782 138.936531,121.106659 134.520938,121.212801 C130.101692,121.318943 125.48277,122.184411 122.074078,125.009428 C120.409708,126.389277 119.078942,128.250848 118.615873,130.369611 C118.327723,131.692306 118.380483,133.084403 117.982755,134.378522 C116.919441,137.81998 113.132907,139.514173 110.840289,142.286119 C108.664554,144.919263 107.909682,148.466863 106.002211,151.304127 C103.498147,155.02727 98.9571478,157.268504 94.4965056,156.974164 C90.0322108,156.68064 84.9469732,153.124875 82.9461575,149.103717 C82.2282177,147.254392 80.182759,145.049491 78.7578373,146.421584 C78.3114078,146.8584 78.1738263,147.519748 77.8243938,148.042294 C76.5139204,150.017765 73.470083,148.948586 71.4611504,147.695291 C66.0183633,144.298739 60.5800406,140.902187 55.1380653,137.505635 C53.9647674,136.770805 52.7472325,136.023726 51.3795349,135.831446 C48.3519313,135.41545 45.7464066,137.766909 43.2748106,139.575409 C39.6185532,142.249377 35.2106709,144.041548 30.6899637,143.996234 C26.1684447,143.947653 21.5746854,141.894209 19.0016282,138.158818 C16.4241068,134.423428 16.2374181,129.002009 19.017862,125.417667 C21.9277705,121.139318 20.1822313,113.84408 20.8397001,108.753335 C21.5012275,103.670754 22.6173012,98.5146909 25.3287515,94.1710237 C26.3230717,92.5809313 27.4963695,91.1488275 28.8096839,89.8563416 C31.3867995,87.3187255 33.0394002,83.9662636 33.5694338,80.3782476 C33.6530379,79.8140607 33.7553108,79.2657952 33.8839637,78.7395746 C34.2001169,77.4532123 34.5491436,76.1472545 35.2918399,75.0531729 C36.034942,73.9631737 37.260188,73.1140358 38.5751258,73.1711893 C40.5921753,73.261002 41.9071131,75.2695398 42.8730241,77.0535459 C43.4006226,78.0169909 43.9241626,78.98411 44.4477026,79.9479632 C44.5033034,80.0508396 44.5584983,80.1541241 44.6140991,80.2574087 C44.8101222,80.6207418 45.2342302,80.7930188 45.6258706,80.6685058 C45.6283057,80.6676893 45.6307408,80.6668728 45.63277,80.6664646 C53.5467471,78.1721219 61.8584523,76.7596136 69.2894739,73.0691295 C76.7245539,69.3786453 76.5216314,63.9327318 77.3130291,55.6332249 C77.3860812,54.8575701 84.3102024,52.8082083 84.7440507,52.1672725 C86.217268,49.9791093 89.4197907,52.1591077 91.5464184,53.7144998 C97.7838499,58.2908634 107.110168,55.6250601 112.410503,49.9709445 C117.707186,44.3209113 119.98357,36.5357861 122.139013,29.0772523 C123.007115,26.0807752 123.940559,22.9781558 126.031066,20.6716032 C128.120762,18.369133 131.720607,17.1321677 134.403242,18.7038893 C137.07005,20.2633638 137.775814,23.7538106 138.218591,26.8278533 C139.703578,37.2134635 140.402037,42.0674299 141.88743,52.4530401 C145.332648,46.9948794 148.758385,42.7859312 154.667082,40.2507646 C161.939824,37.1277332 172.480024,44.4148064 176.229626,51.416112 C179.979634,58.4174176 177.560798,68.1090208 170.969875,72.5016767" id="Fill-1" fill="#9CE557"></path>
                <path d="M156.600563,72 C155.784599,72 155.111581,71.4139382 154.995362,70.5974486 L152.532083,53.2806897 L150.029524,61.0214359 C149.811259,61.6964061 149.191289,62.1499209 148.486685,62.1499209 L135.814344,62.1499209 C135.364855,62.1499209 135,61.7824597 135,61.3293528 C135,60.8766538 135.364855,60.5096005 135.814344,60.5096005 L148.48223,60.5096005 L150.991268,52.7480546 C151.22978,52.0098697 151.906443,51.5592098 152.674218,51.6256872 C153.441994,51.6925725 154.031593,52.2537562 154.140928,53.0221211 L156.601372,70.3184881 L159.116484,48.44619 C159.212051,47.6137947 159.885474,47.0053019 160.718041,47 L160.728974,47 C161.556276,47 162.231724,47.597889 162.33782,48.4253903 L163.936946,60.9292648 L164.481597,58.7848578 C164.675566,58.0205713 165.358302,57.5160769 166.139846,57.5576763 C166.921794,57.5992757 167.547029,58.173918 167.659603,58.9549259 L168.863504,67.3057962 L170.522563,56.5380838 C170.646476,55.7330136 171.297627,55.164081 172.106302,55.1542929 C172.113591,55.1542929 172.120475,55.1542929 172.127764,55.1542929 C172.926315,55.1542929 173.58111,55.704465 173.722841,56.4993393 L174.439593,60.5096005 L189.186061,60.5096005 C189.63555,60.5096005 190,60.8766538 190,61.3293528 C190,61.7824597 189.63555,62.1499209 189.186061,62.1499209 L174.434734,62.1499209 C173.648736,62.1499209 172.976528,61.584251 172.837632,60.8048745 L172.126549,56.8252011 L170.467085,67.5973996 C170.341552,68.4130736 169.683112,68.9811906 168.864314,68.9811906 C168.861075,68.9811906 168.858645,68.9811906 168.85581,68.9807827 C168.032558,68.9767044 167.375737,68.4012463 167.257493,67.581494 L166.051973,59.2204277 L165.507322,61.3660582 C165.311734,62.1368701 164.624138,62.6405488 163.836115,62.5928319 C163.047688,62.5438914 162.426907,61.9590532 162.326076,61.1702964 L160.728569,48.6843668 L158.213862,70.55381 C158.1187,71.3804956 157.450137,71.9885806 156.624049,72 C156.61595,72 156.608256,72 156.600563,72" id="Fill-3" fill="#1C420C"></path>
                <path d="M185.773002,54.6776972 C185.667163,54.7987632 185.439549,55 185.06523,55 L181.238278,55 C180.794899,55 180.40873,54.6817462 180.323324,54.2468804 C180.091622,53.0580852 179.73365,51.8891302 179.253902,50.7691685 C178.330366,48.6013178 177.037416,46.6828873 175.406517,45.0632753 C173.779705,43.4473074 171.848044,42.1576913 169.668336,41.2389664 C167.472282,40.3161924 165.125847,39.8489344 162.685424,39.8489344 C160.24541,39.8489344 157.89448,40.3161924 155.702513,41.2389664 C153.522805,42.1576913 151.59523,43.4473074 149.964332,45.0673243 C148.345692,46.6747893 147.040483,48.5648765 146.084664,50.6804947 C145.576311,51.8045055 145.197906,52.9892517 144.953945,54.194243 C144.860366,54.653403 144.405136,55 143.88861,55 L140.016707,55 C139.455638,55 139,54.548938 139,53.9926013 L139,0.995251592 C139,0.447417823 139.451552,0 140.008942,0 L143.603785,0 C143.96993,0 144.209804,0.181396547 144.31973,0.290315456 C144.429246,0.402878492 144.612319,0.640556558 144.612319,0.999300622 L144.510567,41.8997681 L148.118077,39.1638385 C150.143318,37.6324953 152.408841,36.4198108 154.857028,35.5614164 C157.284783,34.7111201 159.903783,34.2798984 162.636796,34.2798984 C165.910444,34.2798984 169.009601,34.8884676 171.856217,36.093459 C174.715091,37.3020945 177.244598,38.99054 179.383851,41.1102072 C181.519016,43.2254205 183.223063,45.7362241 184.44736,48.5689255 C185.179242,50.2695182 185.699446,52.0745758 185.988358,53.9282217 C186.045568,54.2991129 185.878841,54.5570361 185.773002,54.6776972" id="Fill-5" fill="#1C420C"></path>
                <path d="M184.945806,67.3308985 C184.758598,67.877745 184.543186,68.4241935 184.311424,68.9547221 C183.086803,71.7394999 181.382308,74.206677 179.246988,76.2905839 C177.106763,78.3736948 174.572911,80.033338 171.71737,81.221356 C168.873683,82.4018121 165.769622,83 162.495111,83 C159.220191,83 156.120626,82.4018121 153.276939,81.217774 C150.417311,80.033338 147.887137,78.3736948 145.743642,76.2905839 C143.603418,74.206677 141.903419,71.7394999 140.682885,68.9547221 C140.451123,68.4281734 140.23939,67.8853069 140.05259,67.3428384 C139.914023,66.9468324 140.080794,66.6375895 140.190748,66.4871471 C140.284352,66.3566044 140.556581,66.0593014 141.040952,66.0593014 L144.921642,66.0593014 C145.332438,66.0593014 145.706855,66.3088449 145.877713,66.6972889 L145.934938,66.8198717 C146.8906,68.9392003 148.196562,70.8165473 149.819307,72.4009692 C151.451044,73.9929531 153.382806,75.2565903 155.559001,76.1596432 C157.747867,77.066676 160.099007,77.5259634 162.543752,77.5259634 C164.988906,77.5259634 167.335959,77.066676 169.528504,76.1596432 C171.708786,75.2565903 173.641365,73.9929531 175.268197,72.4009692 C176.899526,70.8125673 178.192817,68.9272604 179.120684,66.78843 L179.173413,66.6614693 C179.344271,66.2614834 179.735038,66 180.166271,66 L183.920657,66 C184.421378,66 184.701782,66.3088449 184.799473,66.4437655 C184.917603,66.5981879 185.088461,66.9189727 184.945806,67.3308985" id="Fill-7" fill="#1C420C"></path>
                <path d="M133.735327,26.708086 C133.817131,26.9578883 133.890389,27.4083514 133.890389,27.6581537 L133.890389,32.4289674 C133.890389,33.0596158 133.727187,33.6452178 133.418283,34.1202516 C133.381654,34.1816784 133.340549,34.2390101 133.316536,34.2635808 L133.222522,34.3659588 C133.165951,34.4110051 133.035308,34.4151002 132.970597,34.3659588 C132.946177,34.337293 132.921351,34.304532 132.884722,34.2635808 C132.258368,33.546935 131.456195,32.6091527 130.796875,31.7000362 C129.901502,30.4633103 129.295497,29.3576281 128.949151,28.3174678 C128.216573,26.1183889 128.489254,23.8005514 128.729784,21.7366114 C128.920661,20.1108491 129.104213,18.5710843 128.770483,17.4080705 C128.371228,15.9911593 127.240209,15.0779477 125.868253,15.0779477 C124.175591,15.0902331 123.454816,16.2041055 122.095476,18.939645 C120.260369,22.6334425 118.436656,26.4255228 116.678876,30.0947495 C115.783503,31.966219 114.88406,33.8376884 113.98828,35.7009676 C113.691179,36.3111404 113.309017,37.2775885 112.89796,38.3136536 C110.911452,43.309699 107.912359,50.8570035 102.446514,50.8570035 L102.360639,50.8570035 L102.312208,50.8529084 C100.24064,50.8078621 98.5882696,50.1485479 97.3957954,48.8872512 C95.2383532,46.6062699 95.3401002,43.0558016 95.4214977,40.2055987 C95.4744062,38.4078414 95.4666734,37.1997812 95.2709123,36.5486573 L95.2709123,36.47085 L95.1691653,36.2865697 C94.5713003,35.2136484 92.3450772,34.3291027 87.4775034,33.239801 C86.7367857,33.0759963 85.9635089,32.8999061 85.328608,32.7279111 L85.059589,32.6705795 L84.5834133,32.8384794 L84.4373047,33.0432353 C84.3233482,33.1988498 84.2012518,33.3708448 84.0828184,33.5428398 L76.574301,43.8789205 C75.7440459,45.0214588 74.909721,46.3278018 74.0265575,47.711952 L73.9492298,47.8348056 C71.2183419,52.1387758 68.1207579,57.0201578 63.590984,59.4076122 C63.3956299,59.5099902 63.2047526,59.6082731 63.0212011,59.7024608 L62.5043267,59.9727387 C61.0880092,60.7098601 60.4820044,61.0415648 60.2170554,61.3486987 L60.1356578,61.463362 C60.0624,61.5821205 59.9118145,61.8319228 59.7005879,63.0113171 C59.6029108,63.5682533 59.5093036,64.1620455 59.464535,64.4978453 L59.3953471,64.9728791 C59.0005689,67.6592773 58.9431836,69.2154225 59.2081327,70.0139708 L59.3013329,70.2555828 L59.6757616,70.5586216 L59.9162914,70.5831923 C60.127925,70.6036679 60.3757806,70.5995728 60.6529393,70.5668119 L60.7872452,70.5668119 L60.9455635,70.4971948 C61.1046957,70.4234827 61.3814474,70.2760584 61.5442425,70.1777755 C62.5332228,69.6249345 64.3724005,68.5929644 66.6108333,69.6536003 C68.418266,70.5135753 68.8781622,72.0901962 69.0979356,72.8477932 L69.1996825,73.1958783 L69.5289356,73.355588 C69.7531859,73.4620611 69.9973785,73.5112025 70.3026194,73.5030123 C71.0876988,73.4784415 71.9667924,73.0197882 72.5976234,72.2949521 C73.8674253,70.84528 74.7794849,68.3185915 74.5556416,66.89349 C74.4290684,66.103132 74.2015622,65.689525 73.9126009,65.17354 C73.2081051,63.8876726 72.5976234,62.4216199 73.4811939,59.948168 C74.343601,57.5320477 77.3960093,51.974971 81.3238483,50.2140698 C82.9029608,49.5015191 84.5105625,49.4482825 85.9753115,50.0461699 C89.1009776,51.3320373 90.4078154,54.8374593 91.4659836,57.6753768 C91.6120922,58.0726034 91.7671545,58.4862104 91.9132631,58.8752468 L92.01908,59.1537149 L92.5689204,59.4526585 L92.849742,59.4035171 C93.549761,59.2765684 94.2860019,59.4526585 94.8679944,59.8867412 C96.0690153,60.7835723 97.67621,64.6657452 97.6477209,65.8246639 C97.5581836,69.3587517 94.5627535,70.6364289 92.7724143,71.4022162 C92.0683255,71.6970647 91.5022055,71.9427719 91.1318466,72.2089546 C89.2312137,73.5808195 87.6398915,75.5464767 86.9891181,77.3319486 C86.7693447,77.9257409 86.6513182,78.6096258 86.524745,79.3508424 C86.3297979,80.505666 86.0811284,81.9430528 85.3363407,83.3640591 C84.1198543,85.6941819 82.3287011,87.5083197 80.0174175,88.7532359 C79.236001,89.1791283 78.369117,89.5513746 77.4411849,89.8548229 C76.1184747,90.2930007 74.6814008,89.7073986 74.1690032,88.5275948 C73.8800419,87.8482146 73.8837048,87.1110931 74.1852827,86.4476838 C74.4819768,85.7924648 75.0395501,85.2928602 75.7196266,85.0758189 C76.4192386,84.8546825 77.0622793,84.5884997 77.6283993,84.2813658 C79.0813456,83.4946934 80.1106177,82.4508475 80.8716849,80.9970803 C81.2383808,80.2927198 81.3804196,79.4777911 81.5436217,78.5318185 L81.5513544,78.4781725 C81.6901373,77.6513679 81.865142,76.623493 82.2473035,75.5751425 C83.264773,72.8027469 85.4340178,70.0672073 88.1938019,68.0769794 C88.6736405,67.7329894 89.2149342,67.4258555 89.8990807,67.1146264 L90.3178711,66.8812046 L90.4281648,65.9925638 L90.0980977,65.7059054 C89.3370305,65.0465913 88.889751,64.1743309 88.6532911,63.7074873 C88.5845101,63.5723484 88.4864261,63.388068 88.4461343,63.3143559 C87.7623948,62.216864 87.2536601,60.8572844 86.7607979,59.538656 L86.7327158,59.4567537 C85.7966439,56.9218749 85.0921481,55.3534443 84.2582301,54.8497447 L84.1198543,54.7678423 L83.8101366,54.7146057 L83.6477485,54.7514618 C82.0197974,55.1241176 79.1745458,59.022671 78.238881,61.6435473 C78.1981822,61.7582106 78.1656232,61.8523984 78.1489367,61.9302056 L78.0679461,62.2578151 L78.238881,62.5444735 C78.2673701,62.5895198 78.2954523,62.6386612 78.336558,62.7205636 C78.734999,63.4494948 79.2762928,64.4405136 79.536765,66.0990369 C80.0621862,69.3997029 78.3524305,73.4006343 76.3948194,75.6488547 C74.8323933,77.4384217 72.6712882,78.5072478 70.4694844,78.5805505 C68.584724,78.6423868 66.8143272,77.9462165 65.4916169,76.6153028 C65.1298048,76.2508372 64.8408435,75.8208497 64.6084534,75.3130549 L64.4297858,74.9854454 L63.7704656,74.7520236 L63.4607479,74.9113237 C62.9686997,75.1656306 62.2931,75.4727646 61.4542982,75.5874279 C58.4751477,75.9887496 56.7499265,74.9485893 55.8256573,74.0067119 C53.3352991,71.4677381 53.9779328,67.1105313 54.4012001,64.2275674 L54.4663181,63.7771043 C55.2277923,58.4657348 56.1109557,57.577094 60.2825804,55.410776 C60.5792745,55.2551614 60.9012018,55.0913567 61.2471414,54.9070763 C64.5758944,53.1543653 67.1728834,49.0715316 69.6998705,45.099266 C70.7258867,43.4775988 71.580154,42.1384949 72.4958765,40.8812933 L79.9970681,30.5493078 C80.2209114,30.246269 80.4040559,29.9800862 80.5542344,29.7589498 C81.2424507,28.7679309 81.8936312,27.8301487 83.2322139,27.4820635 C84.3111385,27.2035954 85.2838393,27.4615879 86.7567281,27.8547194 C87.2369736,27.9816681 87.8393155,28.116807 88.5804403,28.2806118 C92.4061253,29.1405868 97.6477209,30.315886 99.5894595,33.8376884 C100.594312,35.6600164 100.529194,38.0392806 100.468553,40.3489278 C100.358259,43.9362522 100.602859,44.9149857 101.058685,45.3941146 L101.123803,45.4637316 L101.204794,45.512873 C101.448987,45.6725827 101.876731,45.7667704 102.429827,45.7790558 L102.755824,45.7749607 L102.897863,45.6439169 C103.366306,45.4023048 104.188014,44.7225151 105.287288,42.8428554 C106.451273,40.8526275 107.468743,38.2890829 108.21353,36.401233 C108.67302,35.2505045 109.068205,34.2512955 109.442634,33.4814131 C110.342077,31.6181339 111.23745,29.7548547 112.128346,27.8915755 L112.262652,27.6172025 C113.98828,24.0216879 115.770886,20.3033197 117.578319,16.6668539 C118.970217,13.8657925 120.882653,10.0286658 125.836101,10 L125.88494,10 C129.503061,10 132.61611,12.4202154 133.62951,16.0239202 C134.232259,18.1697627 133.97138,20.381127 133.739804,22.3508793 C133.544042,24.0134976 133.365375,25.5860234 133.735327,26.708086" id="Fill-9" fill="#1C420C"></path>
                <path d="M168.809329,108.275277 C168.30035,109.951398 166.826346,111.312735 164.765997,112.0118 C162.355471,112.825331 159.529617,112.943886 157.033582,113.046089 L156.93993,113.050177 C155.832391,113.099234 154.790001,113.144203 153.853479,113.242317 C152.94546,113.340432 151.996722,113.491691 150.990979,113.651127 L150.661161,113.704273 C148.209916,114.100818 145.676827,114.509628 143.193415,114.35428 C140.734027,114.203021 138.254279,113.17282 135.855968,112.179412 L135.790819,112.154883 C133.103408,111.038832 130.322345,109.885988 128.522594,110.458322 C127.366192,110.822163 126.486676,111.30047 125.546082,111.815571 C123.131484,113.131939 120.395211,114.628183 115.443452,111.607078 C115.268771,111.496699 115.114041,111.410849 114.975598,111.337263 L114.193806,110.916189 L113.843628,111.737897 C113.664468,112.158971 113.473091,112.682248 113.302074,113.140115 L113.212494,113.385401 C113.106219,113.675656 112.996687,113.974087 112.878603,114.284783 C112.642437,114.91435 112.357001,115.572534 112.080524,116.210277 L111.974656,116.451475 C110.960769,118.781692 109.804368,121.418515 110.545442,123.053755 C110.728267,123.458477 110.960769,123.834582 111.221367,124.24748 C112.133458,125.723284 113.835485,128.466398 110.077181,131.634675 C108.004617,133.384381 105.239841,133.915834 102.79674,134.390054 L102.568717,134.435023 C101.860218,134.574018 101.188365,134.704837 100.585326,134.860185 L100.154119,134.974652 L99.856875,135.914915 L100.178143,136.31146 C100.886642,137.182225 101.689201,138.171545 102.202252,139.308037 C103.586676,142.39864 102.377341,147.316623 99.6691634,149.630487 C98.6145582,150.525781 97.3771275,151 96.0863558,151 C94.970673,151 93.8387029,150.640247 92.8166723,149.957535 C90.5853067,148.477643 88.9891474,145.79585 87.568077,143.404312 C87.0509539,142.525371 86.5501182,141.68731 86.1022163,141.053655 C85.9434148,140.82881 85.7113202,140.546731 85.4670101,140.2483 L85.3570705,140.121568 C84.5341527,139.12816 83.5980378,138.003933 83.1582796,136.708006 C82.7429525,135.489752 82.8243892,134.279675 82.8895385,133.294443 L82.8936104,133.175888 C82.9221132,132.693493 82.9379934,132.33374 82.9139695,132.07619 L82.901754,131.961723 L82.8610357,131.851344 C82.4615887,130.866112 80.4912277,128.13935 77.3436992,125.167302 C75.6086903,123.523886 73.943717,122.215695 72.5222394,121.377634 L70.71068,120.306553 L71.3332636,122.321985 C72.1113912,124.836166 73.4632405,128.388724 74.2735356,130.514536 L74.3264695,130.657619 C76.5614997,136.507689 76.7899297,137.190401 76.1913699,138.44136 C75.8815033,139.079103 75.3240691,139.569675 74.6562881,139.786344 C72.9379737,140.338238 71.4436103,139.332565 68.5241046,136.712094 C66.7850238,135.146352 64.8757404,133.253562 63.6134715,132.002604 C63.01084,131.405741 62.6077283,131.00102 62.4489267,130.857936 C60.7957617,129.353516 59.9081017,127.411669 59.1914587,125.850015 C58.8087062,125.007866 58.4377621,124.222951 58.1246379,123.805965 L57.8310586,123.417596 L57.3546539,123.491182 C57.0985355,123.532063 56.6506337,123.642441 55.9747091,123.949049 C55.7259199,124.059427 55.4942325,124.169806 55.2702816,124.272009 L55.0666898,124.370123 C52.7823904,125.428941 50.8116223,126.348763 47.2442876,125.359443 C45.807337,124.962897 44.9644672,124.778933 44.5124935,124.76258 L44.1704593,124.754404 L43.9220774,124.991514 C43.66148,125.244976 43.3194458,125.702843 42.9285497,126.320146 C41.3486777,128.813887 40.1108398,129.423013 38.2540831,130.130254 C37.70805,130.338748 37.0895382,130.571769 36.2914586,130.976491 C34.7970951,131.732789 33.6529095,132.967395 32.3254913,134.39823 L31.9997445,134.749806 C31.4948369,135.293524 30.920301,135.996677 30.3669386,136.675301 C27.988987,139.590116 24.7274471,143.567836 20.1914229,143.47381 C18.9450342,143.445193 17.8501178,143.269405 16.8810211,143.118145 C15.7612664,142.942357 14.7066612,142.774745 13.574691,142.848331 C9.66165757,143.101793 8.36681403,141.801777 6.9656956,139.933516 C6.6277333,139.483825 6.27796267,139.017782 5.78527063,138.486329 C5.21521373,137.86085 4.52707361,137.362102 3.76564046,136.810208 C1.87223718,135.440695 -1.2997223,133.139095 0.569249974,128.208848 C1.80301598,124.954721 3.57833605,121.810973 5.29665043,118.769427 L5.33329694,118.704018 C5.98886238,117.551174 6.57520662,116.512797 7.12897619,115.478508 C10.0240509,110.098569 13.8760068,108.704527 19.24635,111.104242 C21.7794386,112.232557 24.3161918,113.463075 26.5557011,114.550509 L26.852945,114.693593 L28.4613198,114.166228 L28.6156424,113.880061 C29.3734109,112.465579 30.2040652,110.842603 30.5131175,109.436297 C30.5705304,109.15013 30.554243,108.753585 30.5216684,108.18166 C30.4687345,107.290045 30.4035851,106.18217 30.7741221,104.9353 C31.6862132,101.869226 34.0519493,100.037758 35.9575681,98.5660419 L36.4095418,98.2062892 C39.0179593,96.1606044 42.9924775,93.1566693 47.4104185,90.6220479 C47.9479007,90.3138052 48.5794423,90.1764451 49.1873673,90.2917295 C49.9329203,90.4327689 50.5563182,90.8791893 50.9256336,91.5304235 C51.6137738,92.7445889 51.1903029,94.2980665 49.9809679,94.9889552 C45.8358399,97.3600527 42.0246023,100.242162 39.5244956,102.20445 L39.0358754,102.584643 C37.435237,103.823337 36.059364,104.894419 35.6196058,106.374311 C35.5011154,106.758592 35.5259536,107.224636 35.5626001,107.81741 L35.5626001,107.88282 C35.6114621,108.618677 35.664396,109.534412 35.4445169,110.540084 C34.947753,112.804891 33.7343462,115.049257 32.6471662,117.060602 L32.6023761,117.142364 C32.1300432,118.021305 31.6780695,118.847101 31.3274845,119.619752 C31.0428632,120.228879 30.5216684,120.711274 29.8946058,120.940208 C29.2553277,121.169141 28.5671876,121.140525 27.9523405,120.846182 C26.7466701,120.273848 25.5418141,119.693338 24.3402156,119.108739 L24.0759535,118.982008 C21.8242288,117.890895 19.4951391,116.766668 17.1904805,115.736058 C15.7327636,115.08605 14.6252245,114.897998 13.9004378,115.184164 C13.1675075,115.474419 12.3857152,116.386066 11.57542,117.890895 C11.0216505,118.91292 10.4312344,119.963152 9.85710565,120.981089 L9.72680693,121.205934 C8.08992925,124.100308 6.40011772,127.092797 5.29257859,130.0117 C5.16594453,130.346924 5.08898684,130.637179 5.05641216,130.874288 L5.01569381,131.234041 L5.24778841,131.507944 C5.50024218,131.802287 6.0255089,132.199241 6.72545734,132.697581 C7.54837519,133.294443 8.57040578,134.038886 9.4906405,135.035973 C10.1258468,135.722774 10.5818923,136.323724 10.9442856,136.80612 L11.0008841,136.875618 C11.0908717,137.002758 11.3188944,137.309365 11.4817678,137.501097 L11.6853596,137.742295 L11.9988909,137.783176 C12.3083503,137.820378 12.7277493,137.820378 13.2489442,137.787264 C14.9143247,137.676885 16.3516825,137.901731 17.617616,138.097959 L17.6668852,138.106136 C18.5626889,138.249219 19.4137024,138.384126 20.313578,138.404567 L20.3701765,138.404567 C22.4227885,138.404567 24.6582259,135.665541 26.4620488,133.457967 C27.1461171,132.619907 27.7121022,131.929018 28.3061829,131.287186 L28.6323369,130.939698 C30.0733593,129.382132 31.7106442,127.611985 34.0153028,126.442789 C35.0287825,125.935865 35.8476286,125.621081 36.4665475,125.383972 C37.7654629,124.8934 37.9324081,124.758492 38.6653384,123.597472 C41.6744245,118.843013 44.3940031,119.309056 48.5884003,120.470076 C50.3718641,120.960648 50.966352,120.686746 52.9448566,119.762835 L52.9859822,119.746483 C53.2750824,119.611576 53.5804701,119.468492 53.9062169,119.321729 C56.6709928,118.07445 58.9919388,118.098979 60.7957617,119.398995 C62.294197,120.474165 63.084133,122.207519 63.7844886,123.736468 L63.8129915,123.805965 C64.4074794,125.093716 64.9693926,126.307882 65.8529808,127.113237 C65.9099865,127.166383 65.9706568,127.223616 66.0443571,127.293523 L68.4915299,129.631506 L67.3758471,126.430525 C65.5964552,121.340842 65.2869957,119.235471 66.0891472,117.771931 C67.0786031,115.973168 68.9720064,115.102402 71.1663183,115.449891 C77.0664073,116.377889 87.0590976,126.89248 87.8531054,130.95605 C88.0404098,131.920842 87.9793323,132.861105 87.9259913,133.625579 L87.9223266,133.744134 C87.8897519,134.316468 87.8734646,134.708925 87.9182548,134.970564 L87.9345421,135.072766 L87.9793323,135.166792 C88.1422057,135.534721 88.5982512,136.102967 89.1801164,136.80612 L89.2375293,136.875618 C89.5547253,137.251723 89.9175258,137.68915 90.2147697,138.106136 C90.7929703,138.919667 91.3345243,139.835402 91.9127249,140.812457 C93.0284077,142.688895 94.2906766,144.814706 95.5488736,145.693647 L96.1270742,146.094281 L96.6075507,145.579181 C97.3974867,144.732944 98.0449085,142.476314 97.5929348,141.388879 C97.3486247,140.84925 96.7907833,140.162449 96.2247982,139.471561 C94.9991759,137.971228 93.4763096,136.102967 94.1115158,133.81772 C94.7670813,131.491591 97.3038345,130.600386 98.1381535,130.306043 C99.3438238,129.889057 100.671242,129.635594 101.876505,129.402573 C103.680328,129.055084 105.545229,128.691244 106.63648,127.898152 L107.251327,127.45255 L106.852288,126.80663 C106.599834,126.393732 106.253728,125.829574 105.943861,125.15095 C104.274816,121.459396 106.054208,117.38765 107.353123,114.403338 C107.63408,113.765594 107.927252,113.095146 108.155275,112.494195 C108.228568,112.302055 108.297789,112.109914 108.362938,111.92595 L108.472878,111.62343 C109.356466,109.211452 110.195264,106.938469 112.499923,106.124937 C114.60099,105.389079 116.677625,106.423368 118.05757,107.265517 C120.452217,108.72088 121.038561,108.508299 123.139628,107.355455 C124.132748,106.811738 125.370993,106.133113 126.999727,105.622101 C130.574798,104.489697 134.386036,106.07588 137.753444,107.478098 L137.814521,107.502626 C139.821936,108.33251 141.890428,109.191011 143.511018,109.293214 C145.40035,109.411769 147.635787,109.052016 149.789788,108.704527 L149.944518,108.679999 C151.056129,108.504211 152.204386,108.320246 153.31559,108.197603 C154.358387,108.087225 155.485878,108.034079 156.577537,107.98911 L156.821847,107.977255 C158.051541,107.927789 159.155008,107.878731 160.205542,107.77285 L165.759525,107.216459 L160.278835,106.157642 C159.973447,106.09632 159.651772,106.030911 159.346385,105.940973 C155.416657,104.84945 152.342828,102.580555 150.685592,99.55945 C149.105312,96.6773401 148.84105,93.2515132 149.919679,89.6703384 L149.936374,89.6212812 C150.115535,89.032595 150.522718,88.5461112 151.076081,88.2640323 C151.642473,87.9696892 152.289895,87.920632 152.892526,88.1209489 C153.034633,88.1683708 153.177147,88.2149752 153.320476,88.2603531 C154.505787,88.636867 155.130407,89.9070393 154.768013,91.1007643 C154.76557,91.107714 154.763534,91.1146638 154.761498,91.1216136 C154.069286,93.4191252 154.18737,95.434558 155.111269,97.1188548 C156.121491,98.9625875 158.051541,100.323924 160.694162,101.059782 C161.011765,101.14972 161.484098,101.223306 161.984934,101.30098 L162.082658,101.317333 C163.914984,101.599411 166.419162,101.983693 167.885023,103.901011 C168.922933,105.25826 169.249087,106.811738 168.809329,108.275277" id="Fill-11" fill="#1C420C"></path>
                <path d="M64.409414,90.1262114 C63.9823212,90.629408 63.383593,90.935754 62.7289835,90.9880864 L62.6731022,90.9917094 C61.2960273,91.104828 60.1105455,90.0461026 60.0067659,88.6894847 C59.9588677,88.0212398 60.1664268,87.3767457 60.5931204,86.8735492 C61.0206124,86.3663271 61.6193406,86.0603836 62.2819331,86.0120767 L62.3218483,86.0084537 C62.389305,86.0044281 62.4535685,86 62.5174329,86 C63.1121696,86 63.6789656,86.2097323 64.1343982,86.6038358 C64.6369307,87.0385976 64.9442779,87.6424334 64.9921762,88.3066528 C65.0440659,88.9753004 64.8365068,89.6189894 64.409414,90.1262114" id="Fill-13" fill="#1C420C"></path>
                <path d="M39.1454471,81.8241035 C38.3580352,82.7557607 37.0070444,83.2995969 35.3922506,83.610418 C33.7738594,83.9204328 31.8912656,83.9974326 30.0246599,83.9974326 C29.0649767,83.9974326 28.11009,83.9768725 27.198371,83.9567155 C26.7906755,83.9490558 26.3909741,83.9405899 26.0032637,83.9325271 L24.9124785,83.9164014 L25.255822,82.8726713 C25.5400097,82.0139826 26.0436335,80.8283471 26.7586994,79.3528538 C26.9665442,78.9174623 27.1344188,78.5711649 27.2543292,78.2805007 C27.7019948,77.2125822 28.1856336,76.159983 28.6972514,75.0473159 C29.7484662,72.7574793 30.8400508,70.3870146 31.5790988,67.9157649 C32.3265405,65.4364524 31.8828719,63.0095481 31.5271376,61.0583492 C31.2513436,59.5385105 31.0115228,58.2283047 31.2633347,57.1277318 L31.3272869,56.8576278 L31.5431257,56.6802461 C32.7782031,55.6804583 36.7752175,55.7933376 38.0186887,56.8656906 L38.1821666,57.0067897 L38.2545126,57.2123913 C38.4739487,57.8493529 38.2381248,59.0103968 37.7189126,60.9212816 C37.3587816,62.247613 36.9910563,63.6142584 37.0150384,64.9204328 C37.0673993,67.5005304 37.8743965,70.0241884 38.6578113,72.4672183 C39.1494441,73.9910885 39.6051037,75.4222364 39.8409276,76.7445364 C40.2566171,79.0787184 40.0247903,80.7884362 39.1454471,81.8241035 M44.7212822,75.8576278 C44.4259028,74.2007214 43.8942999,72.5397836 43.3782854,70.931254 C42.6748108,68.738171 42.0113064,66.6660301 41.9753333,64.8196478 C41.963742,64.2794398 42.1871751,63.4167197 42.4993419,62.2556758 C43.2267985,59.5747931 44.2176584,55.9183111 41.4841002,53.2858052 C39.8489216,51.7095268 37.0993754,51 34.5129074,51 C33.374158,51 32.2625883,51.1370677 31.2953108,51.3991088 C28.8131648,52.0763845 27.1268244,53.5478464 26.5468577,55.5514534 C25.895744,57.8251644 26.2954454,60.0222788 26.65078,61.9654148 C26.9629469,63.6747295 27.2303471,65.1502228 26.8346427,66.46446 C26.1955201,68.5970719 25.2282426,70.7054954 24.2006102,72.934861 C23.6889923,74.0519627 23.1613864,75.196881 22.6857417,76.3333333 C22.6257865,76.4784638 22.4782967,76.7848504 22.3304071,77.0956715 L22.298431,77.1638022 C20.5953032,80.6876512 19.0724407,84.3437301 20.6836372,86.9439847 C21.1432939,87.6817314 22.2620582,88.9234034 24.6087054,88.9234034 C25.3721351,88.9234034 26.1911234,88.939529 27.0584755,88.959686 C27.9382184,88.9758116 28.9850364,89 30.0202632,89 C34.7527282,89 39.9852198,88.5327604 42.9150314,85.0738171 C44.8092165,82.8404201 45.4167627,79.7398684 44.7212822,75.8576278" id="Fill-15" fill="#1C420C"></path>
            </g>
        </g>
    </g>
</svg>