<?xml version="1.0" encoding="UTF-8"?>
<svg width="494px" height="287px" viewBox="0 0 494 287" version="1.1" xmlns="http://www.w3.org/2000/svg" xmlns:xlink="http://www.w3.org/1999/xlink">
    <!-- Generator: sketchtool 53.2 (72643) - https://sketchapp.com -->
    <title>30CC30DF-8A11-4D4E-8DD5-360728C97724</title>
    <desc>Created with sketchtool.</desc>
    <g id="Page-1" stroke="none" stroke-width="1" fill="none" fill-rule="evenodd" opacity="0.147121">
        <g id="UI-green---Home-Page---V1" transform="translate(0.000000, -1186.000000)" fill="#75B845">
            <path d="M103.530702,1473 C93.9902146,1473 86.1270922,1466.27426 84.7685026,1456.89876 L55.9648835,1258.09905 L26.7134611,1346.96741 C24.1556694,1354.71402 16.9073278,1359.92347 8.67230105,1359.92347 L-139.482282,1359.92347 C-144.734484,1359.92347 -149,1355.70487 -149,1350.50293 C-149,1345.30099 -144.734484,1341.08989 -139.482282,1341.08989 L8.61917184,1341.08989 L37.954083,1251.98883 C40.7471612,1243.5141 48.6558228,1238.33468 57.6270686,1239.10033 C66.6059043,1239.86598 73.4975212,1246.31399 74.7726221,1255.13402 L103.538292,1453.70103 L132.941512,1202.60417 C134.057225,1193.04101 141.935527,1186.05254 151.665762,1186 L151.79479,1186 C161.464305,1186 169.365377,1192.86086 170.602528,1202.35646 L189.304009,1345.9015 L195.664333,1321.28799 C197.933709,1312.513 205.91827,1306.72556 215.048903,1307.19846 C224.194717,1307.67887 231.503777,1314.2695 232.824417,1323.23966 L246.896067,1419.1115 L266.288227,1295.49597 C267.737895,1286.25558 275.358141,1279.72501 284.80755,1279.60491 L285.058016,1279.60491 C294.393576,1279.60491 302.044182,1285.9253 303.706367,1295.04559 L312.085602,1341.08989 L484.482282,1341.08989 C489.742074,1341.08989 494,1345.30099 494,1350.50293 C494,1355.70487 489.742074,1359.92347 484.482282,1359.92347 L312.024883,1359.92347 C302.83353,1359.92347 294.985587,1353.42292 293.353762,1344.48279 L285.042836,1298.79129 L265.643086,1422.45936 C264.170649,1431.82735 256.474504,1438.34291 246.903657,1438.34291 L246.797398,1438.34291 C237.181012,1438.29788 229.500047,1431.69224 228.118688,1422.2717 L214.024269,1326.28726 L207.656354,1350.92329 C205.371798,1359.77334 197.334108,1365.55328 188.119986,1364.9978 C178.905864,1364.44233 171.642343,1357.7316 170.46591,1348.67137 L151.7872,1205.329 L122.39157,1456.39583 C121.275856,1465.89143 113.465863,1472.86488 103.803938,1473 L103.530702,1473 Z" id="graph"></path>
        </g>
    </g>
</svg>