<?xml version="1.0" encoding="UTF-8"?>
<svg width="127px" height="50px" viewBox="0 0 127 50" version="1.1" xmlns="http://www.w3.org/2000/svg" xmlns:xlink="http://www.w3.org/1999/xlink">
    <!-- Generator: sketchtool 53.2 (72643) - https://sketchapp.com -->
    <title>17544517-C1DA-44EC-80A9-C9471DC37D58</title>
    <desc>Created with sketchtool.</desc>
    <defs>
        <polygon id="path-1" points="0 0.5012 21.5706 0.5012 21.5706 10.2362 0 10.2362"></polygon>
        <polygon id="path-3" points="0.471894217 0.6612 4.54816918 0.6612 4.54816918 5 0.471894217 5"></polygon>
        <polygon id="path-5" points="0.72936356 0.5993 5.51461922 0.5993 5.51461922 5 0.72936356 5"></polygon>
        <polygon id="path-7" points="0.5937 0.6612 3.9967 0.6612 3.9967 5 0.5937 5"></polygon>
    </defs>
    <g id="Page-1" stroke="none" stroke-width="1" fill="none" fill-rule="evenodd">
        <g id="UI-green---Home-Page---V1" transform="translate(-149.000000, -2947.000000)">
            <g id="logo_bcheck_footer" transform="translate(149.000000, 2947.000000)">
                <g id="Group-3" transform="translate(0.000000, 18.286000)">
                    <mask id="mask-2" fill="white">
                        <use xlink:href="#path-1"></use>
                    </mask>
                    <g id="Clip-2"></g>
                    <path d="M8.4716,10.2362 C8.1516,10.2362 7.8876,10.0072 7.8416,9.6892 L6.8756,2.9462 L5.8946,5.9612 C5.8086,6.2232 5.5656,6.4002 5.2886,6.4002 L0.3196,6.4002 C0.1436,6.4002 -0.0004,6.2572 -0.0004,6.0812 C-0.0004,5.9042 0.1436,5.7612 0.3196,5.7612 L5.2876,5.7612 L6.2716,2.7392 C6.3656,2.4522 6.6306,2.2762 6.9316,2.3012 C7.2336,2.3282 7.4636,2.5472 7.5066,2.8452 L8.4716,9.5812 L9.4576,1.0632 C9.4956,0.7392 9.7596,0.5032 10.0866,0.5012 L10.0906,0.5012 C10.4146,0.5012 10.6806,0.7332 10.7216,1.0552 L11.3486,5.9242 L11.5626,5.0902 C11.6386,4.7922 11.9066,4.5952 12.2126,4.6122 C12.5196,4.6282 12.7646,4.8522 12.8086,5.1562 L13.2816,8.4082 L13.9316,4.2152 C13.9806,3.9012 14.2356,3.6792 14.5526,3.6752 L14.5616,3.6752 C14.8746,3.6752 15.1306,3.8902 15.1866,4.2002 L15.4676,5.7612 L21.2506,5.7612 C21.4276,5.7612 21.5706,5.9042 21.5706,6.0812 C21.5706,6.2572 21.4276,6.4002 21.2506,6.4002 L15.4656,6.4002 C15.1586,6.4002 14.8946,6.1792 14.8396,5.8772 L14.5606,4.3272 L13.9096,8.5212 C13.8606,8.8392 13.6026,9.0602 13.2816,9.0602 L13.2786,9.0602 C12.9546,9.0582 12.6976,8.8352 12.6516,8.5152 L12.1786,5.2592 L11.9646,6.0942 C11.8876,6.3952 11.6176,6.5912 11.3096,6.5732 C10.9996,6.5532 10.7566,6.3262 10.7166,6.0182 L10.0906,1.1562 L9.1046,9.6732 C9.0676,9.9952 8.8046,10.2312 8.4806,10.2362 L8.4716,10.2362 Z" id="Fill-1" fill="#FEFEFE" mask="url(#mask-2)"></path>
                </g>
                <path d="M19.8017,22.1335 C19.7567,22.1865 19.6587,22.2725 19.5037,22.2725 L18.0137,22.2725 C17.8257,22.2725 17.6617,22.1355 17.6257,21.9485 C17.5367,21.4845 17.3977,21.0275 17.2137,20.5895 C16.8547,19.7455 16.3527,18.9965 15.7267,18.3635 C15.0937,17.7325 14.3477,17.2305 13.5027,16.8705 C12.6557,16.5115 11.7477,16.3275 10.8037,16.3275 C9.8597,16.3275 8.9507,16.5115 8.1047,16.8705 C7.2607,17.2305 6.5137,17.7325 5.8847,18.3635 C5.2577,18.9935 4.7537,19.7325 4.3827,20.5565 C4.1887,20.9965 4.0397,21.4585 3.9457,21.9295 C3.9057,22.1245 3.7147,22.2725 3.4997,22.2725 L1.9927,22.2725 C1.7557,22.2725 1.5637,22.0795 1.5637,21.8435 L1.5637,1.0565 C1.5637,0.8225 1.7557,0.6305 1.9897,0.6305 L3.3887,0.6305 C3.5417,0.6305 3.6417,0.7085 3.6897,0.7555 C3.7367,0.8035 3.8147,0.9035 3.8147,1.0565 L3.7757,17.0325 L5.1207,15.9985 C5.9117,15.3975 6.7947,14.9185 7.7507,14.5805 C8.6977,14.2465 9.7207,14.0765 10.7837,14.0765 C12.0607,14.0765 13.2727,14.3165 14.3807,14.7895 C15.4947,15.2665 16.4837,15.9325 17.3167,16.7655 C18.1527,17.5985 18.8157,18.5865 19.2917,19.7005 C19.5787,20.3725 19.7797,21.0825 19.8937,21.8125 C19.9187,21.9715 19.8457,22.0825 19.8017,22.1335" id="Fill-4" fill="#FEFEFE"></path>
                <path d="M19.54,26.9548 C19.468,27.1758 19.384,27.3918 19.292,27.6068 C18.815,28.7218 18.149,29.7098 17.316,30.5428 C16.483,31.3788 15.495,32.0418 14.381,32.5178 C13.272,32.9918 12.063,33.2308 10.784,33.2308 C9.509,33.2308 8.3,32.9918 7.191,32.5178 C6.077,32.0418 5.088,31.3788 4.252,30.5428 C3.419,29.7098 2.753,28.7218 2.28,27.6068 C2.187,27.3948 2.104,27.1778 2.032,26.9608 C1.974,26.7878 2.043,26.6538 2.091,26.5878 C2.132,26.5318 2.246,26.4028 2.45,26.4028 L3.957,26.4028 C4.13,26.4028 4.288,26.5128 4.36,26.6828 L4.38,26.7258 C4.751,27.5678 5.255,28.3138 5.885,28.9438 C6.514,29.5758 7.261,30.0778 8.104,30.4368 C8.948,30.7968 9.859,30.9798 10.804,30.9798 C11.748,30.9798 12.659,30.7968 13.503,30.4368 C14.348,30.0778 15.094,29.5758 15.724,28.9438 C16.355,28.3108 16.854,27.5648 17.214,26.7158 L17.236,26.6658 C17.306,26.4928 17.47,26.3818 17.651,26.3818 L19.108,26.3818 C19.319,26.3818 19.436,26.5158 19.478,26.5708 C19.528,26.6378 19.599,26.7768 19.54,26.9548" id="Fill-6" fill="#FEFEFE"></path>
                <path d="M39.8388,28.6638 L41.7798,30.1448 C40.9898,31.0008 40.0688,31.6908 39.0158,32.2188 C36.6128,33.4688 33.5528,33.5668 31.0188,32.4808 C29.8668,31.9878 28.8468,31.2968 27.9578,30.4408 C27.0688,29.5528 26.3788,28.5318 25.8848,27.3808 C25.3918,26.2288 25.1278,24.9448 25.1278,23.6288 C25.1278,22.3118 25.3918,21.0948 25.8848,19.9428 C26.3788,18.7588 27.0688,17.7378 27.9578,16.8828 C28.8468,15.9938 29.8668,15.3028 31.0188,14.8088 C32.1708,14.3148 33.4208,14.0528 34.7368,14.0528 C36.2838,14.0528 37.7328,14.3818 39.0158,15.0398 C40.0688,15.5998 40.9898,16.2898 41.7798,17.1458 L39.8708,18.6268 C39.3118,18.0668 38.6528,17.6058 37.9298,17.2448 C36.1518,16.3228 33.8488,16.2248 31.9408,17.0468 C31.0848,17.4088 30.2948,17.9348 29.6368,18.5608 C29.0118,19.2198 28.4848,19.9758 28.1228,20.8648 C27.7278,21.7208 27.5638,22.6418 27.5638,23.6288 C27.5638,24.6158 27.7278,25.5378 28.1228,26.3928 C28.4848,27.2818 29.0118,28.0388 29.6368,28.6968 C30.2948,29.3218 31.0848,29.8488 31.9408,30.2438 C33.8168,31.0658 36.1518,30.9678 37.9628,30.0458 C38.6528,29.6848 39.3118,29.2238 39.8388,28.6638" id="Fill-8" fill="#FEFEFE"></path>
                <path d="M63.5644,22.28 L63.5644,33.304 L61.1284,33.304 L61.1284,22.28 C61.1284,21.49 60.9644,20.733 60.6684,20.009 C60.3724,19.318 59.9444,18.692 59.4184,18.166 C58.8914,17.639 58.2664,17.212 57.5424,16.916 C56.1274,16.29 54.4814,16.29 53.0334,16.916 C52.3094,17.212 51.6844,17.639 51.1584,18.166 C50.6304,18.725 50.2364,19.318 49.9074,20.009 C49.6114,20.733 49.4464,21.49 49.4464,22.28 L49.4464,33.304 L47.0434,33.304 L47.0434,0.461 C47.0434,0.206 47.2514,0 47.5044,0 L48.9864,0 C49.2404,0 49.4464,0.206 49.4464,0.461 L49.4464,16.258 L50.7304,15.401 C51.3884,14.973 52.0794,14.612 52.8694,14.382 C54.4164,13.921 56.1604,13.921 57.7074,14.382 C58.4974,14.644 59.2204,14.973 59.8454,15.401 C60.9644,16.126 61.8864,17.113 62.5444,18.331 C63.2354,19.515 63.5644,20.865 63.5644,22.28" id="Fill-10" fill="#FEFEFE"></path>
                <path d="M106.3369,28.6638 L108.2459,30.1448 C107.4889,31.0008 106.5669,31.6908 105.5149,32.2188 C103.1119,33.4688 100.0519,33.5668 97.5179,32.4808 C96.3329,31.9878 95.3129,31.2968 94.4239,30.4408 C93.5679,29.5528 92.8769,28.5318 92.3509,27.3808 C91.8579,26.2288 91.6269,24.9448 91.6269,23.6288 C91.6269,22.3118 91.8579,21.0948 92.3509,19.9428 C92.8769,18.7588 93.5679,17.7378 94.4239,16.8828 C95.3129,15.9938 96.3329,15.3028 97.5179,14.8088 C98.6689,14.3148 99.9199,14.0528 101.2029,14.0528 C102.7499,14.0528 104.1979,14.3818 105.5149,15.0398 C106.5669,15.5998 107.4889,16.2898 108.2459,17.1458 L106.3369,18.6268 C105.8109,18.0668 105.1519,17.6058 104.4289,17.2448 C102.6179,16.3228 100.3479,16.2248 98.4389,17.0468 C97.5499,17.4088 96.7929,17.9348 96.1349,18.5608 C95.4769,19.2198 94.9829,19.9758 94.5889,20.8648 C94.2269,21.7208 94.0289,22.6748 94.0289,23.6288 C94.0289,24.6158 94.2269,25.5378 94.5889,26.3928 C94.9499,27.2818 95.4769,28.0388 96.1349,28.6968 C96.7929,29.3218 97.5499,29.8488 98.4059,30.2438 C100.3149,31.0658 102.6179,30.9678 104.4289,30.0458 C105.1519,29.6848 105.7769,29.2238 106.3369,28.6638" id="Fill-12" fill="#FEFEFE"></path>
                <path d="M126.454,33.3044 L123.492,33.3044 L116.12,23.4314 L116.12,33.2054 L113.685,33.2054 L113.685,1.1234 C113.685,0.8854 113.879,0.6914 114.118,0.6914 L115.687,0.6914 C115.927,0.6914 116.12,0.8854 116.12,1.1234 L116.12,21.7524 L121.583,14.1174 L124.578,14.1174 L118.49,22.4444 L126.454,33.3044 Z" id="Fill-14" fill="#FEFEFE"></path>
                <path d="M70.5927,21.7732 C71.3557,18.6822 73.9807,16.2792 77.5197,16.2792 C80.7847,16.2792 83.6227,18.4822 84.4157,21.7732 L70.5927,21.7732 Z M86.7967,23.6632 C86.7967,18.0242 82.5247,14.0462 77.5507,14.0462 C71.9967,14.0462 68.1827,18.5402 68.1827,23.6912 C68.1827,28.9862 72.1497,33.2782 77.0007,33.2782 C82.4327,33.2782 85.5757,30.3022 86.5217,26.2662 L84.2637,26.2662 C83.4087,29.0432 81.0297,31.0452 77.1227,31.0452 C73.4007,31.0452 70.4097,27.8402 70.3487,23.8342 L86.7967,23.8342 L86.7967,23.6632 Z" id="Fill-16" fill="#FEFEFE"></path>
                <path d="M11.7538,46.9265 C12.0968,46.9265 12.3838,46.6525 12.3838,46.2915 C12.3838,45.9545 12.0968,45.6985 11.7538,45.6985 L11.0448,45.6985 L11.0448,46.9265 L11.7538,46.9265 Z M10.2508,45.0635 C10.2508,45.0015 10.2998,44.9475 10.3668,44.9475 L11.8028,44.9475 C12.5548,44.9475 13.1718,45.5585 13.1718,46.2975 C13.1718,47.0555 12.5548,47.6725 11.8098,47.6725 L11.0448,47.6725 L11.0448,49.1095 C11.0448,49.1695 10.9898,49.2255 10.9288,49.2255 L10.3668,49.2255 C10.2998,49.2255 10.2508,49.1695 10.2508,49.1095 L10.2508,45.0635 Z" id="Fill-18" fill="#FEFEFE"></path>
                <path d="M16.0312,46.8962 C16.3552,46.8962 16.6362,46.6152 16.6362,46.2732 C16.6362,45.9492 16.3552,45.6802 16.0312,45.6802 L15.0352,45.6802 L15.0352,46.8962 L16.0312,46.8962 Z M14.2342,45.0632 C14.2342,45.0012 14.2842,44.9472 14.3502,44.9472 L16.0982,44.9472 C16.8322,44.9472 17.4312,45.5342 17.4312,46.2602 C17.4312,46.8232 17.0582,47.2812 16.5262,47.4952 L17.3642,49.0472 C17.4072,49.1262 17.3642,49.2252 17.2602,49.2252 L16.6182,49.2252 C16.5632,49.2252 16.5332,49.1942 16.5202,49.1692 L15.7082,47.5502 L15.0292,47.5502 L15.0292,49.1092 C15.0292,49.1692 14.9742,49.2252 14.9132,49.2252 L14.3502,49.2252 C14.2842,49.2252 14.2342,49.1692 14.2342,49.1092 L14.2342,45.0632 Z" id="Fill-20" fill="#FEFEFE"></path>
                <path d="M18.6708,45.0632 C18.6708,45.0012 18.7198,44.9472 18.7868,44.9472 L21.2748,44.9472 C21.3418,44.9472 21.3908,45.0012 21.3908,45.0632 L21.3908,45.5642 C21.3908,45.6252 21.3418,45.6802 21.2748,45.6802 L19.4658,45.6802 L19.4658,46.6822 L20.9758,46.6822 C21.0358,46.6822 21.0918,46.7372 21.0918,46.7982 L21.0918,47.3052 C21.0918,47.3732 21.0358,47.4212 20.9758,47.4212 L19.4658,47.4212 L19.4658,48.4922 L21.2748,48.4922 C21.3418,48.4922 21.3908,48.5462 21.3908,48.6082 L21.3908,49.1092 C21.3908,49.1692 21.3418,49.2252 21.2748,49.2252 L18.7868,49.2252 C18.7198,49.2252 18.6708,49.1692 18.6708,49.1092 L18.6708,45.0632 Z" id="Fill-22" fill="#FEFEFE"></path>
                <path d="M24.1161,48.4792 C24.9101,48.4792 25.4911,47.8802 25.4911,47.0802 C25.4911,46.2852 24.9101,45.6862 24.1161,45.6862 L23.4191,45.6862 L23.4191,48.4792 L24.1161,48.4792 Z M22.6311,45.0632 C22.6311,45.0012 22.6791,44.9472 22.7411,44.9472 L24.1891,44.9472 C25.3691,44.9472 26.3351,45.9062 26.3351,47.0802 C26.3351,48.2652 25.3691,49.2252 24.1891,49.2252 L22.7411,49.2252 C22.6791,49.2252 22.6311,49.1692 22.6311,49.1092 L22.6311,45.0632 Z" id="Fill-24" fill="#FEFEFE"></path>
                <path d="M27.5078,45.0632 C27.5078,45.0012 27.5628,44.9472 27.6228,44.9472 L28.1918,44.9472 C28.2528,44.9472 28.3078,45.0012 28.3078,45.0632 L28.3078,49.1092 C28.3078,49.1692 28.2528,49.2252 28.1918,49.2252 L27.6228,49.2252 C27.5628,49.2252 27.5078,49.1692 27.5078,49.1092 L27.5078,45.0632 Z" id="Fill-26" fill="#FEFEFE"></path>
                <path d="M31.6806,44.8855 C32.2986,44.8855 32.7436,45.0805 33.1596,45.4535 C33.2146,45.5025 33.2146,45.5755 33.1656,45.6245 L32.7926,46.0105 C32.7506,46.0595 32.6896,46.0595 32.6406,46.0105 C32.3836,45.7835 32.0416,45.6495 31.6996,45.6495 C30.9166,45.6495 30.3366,46.3035 30.3366,47.0735 C30.3366,47.8375 30.9226,48.4855 31.7046,48.4855 C32.0726,48.4855 32.3836,48.3445 32.6406,48.1375 C32.6896,48.0945 32.7566,48.1005 32.7926,48.1375 L33.1716,48.5285 C33.2216,48.5715 33.2086,48.6505 33.1656,48.6935 C32.7506,49.0965 32.2246,49.2855 31.6806,49.2855 C30.4586,49.2855 29.4746,48.3145 29.4746,47.0915 C29.4746,45.8695 30.4586,44.8855 31.6806,44.8855" id="Fill-28" fill="#FEFEFE"></path>
                <path d="M34.9072,45.6804 L33.9712,45.6804 C33.9052,45.6804 33.8562,45.6244 33.8562,45.5644 L33.8562,45.0634 C33.8562,45.0014 33.9052,44.9474 33.9712,44.9474 L36.6422,44.9474 C36.7102,44.9474 36.7592,45.0014 36.7592,45.0634 L36.7592,45.5644 C36.7592,45.6244 36.7102,45.6804 36.6422,45.6804 L35.7082,45.6804 L35.7082,49.1094 C35.7082,49.1694 35.6532,49.2254 35.5922,49.2254 L35.0232,49.2254 C34.9622,49.2254 34.9072,49.1694 34.9072,49.1094 L34.9072,45.6804 Z" id="Fill-30" fill="#FEFEFE"></path>
                <path d="M37.7607,45.0632 C37.7607,45.0012 37.8157,44.9472 37.8767,44.9472 L38.4457,44.9472 C38.5067,44.9472 38.5617,45.0012 38.5617,45.0632 L38.5617,49.1092 C38.5617,49.1692 38.5067,49.2252 38.4457,49.2252 L37.8767,49.2252 C37.8157,49.2252 37.7607,49.1692 37.7607,49.1092 L37.7607,45.0632 Z" id="Fill-32" fill="#FEFEFE"></path>
                <g id="Group-36" transform="translate(39.000000, 44.286000)">
                    <mask id="mask-4" fill="white">
                        <use xlink:href="#path-3"></use>
                    </mask>
                    <g id="Clip-35"></g>
                    <path d="M0.4843,0.8202 C0.4473,0.7402 0.4963,0.6612 0.5883,0.6612 L1.2113,0.6612 C1.2663,0.6612 1.3023,0.6972 1.3153,0.7282 L2.4883,3.3562 L2.5313,3.3562 L3.7053,0.7282 C3.7163,0.6972 3.7543,0.6612 3.8083,0.6612 L4.4313,0.6612 C4.5233,0.6612 4.5723,0.7402 4.5363,0.8202 L2.6413,4.9322 C2.6233,4.9692 2.5923,5.0002 2.5373,5.0002 L2.4763,5.0002 C2.4213,5.0002 2.3903,4.9692 2.3723,4.9322 L0.4843,0.8202 Z" id="Fill-34" fill="#FEFEFE" mask="url(#mask-4)"></path>
                </g>
                <path d="M44.4579,45.0632 C44.4579,45.0012 44.5069,44.9472 44.5739,44.9472 L47.0619,44.9472 C47.1289,44.9472 47.1779,45.0012 47.1779,45.0632 L47.1779,45.5642 C47.1779,45.6252 47.1289,45.6802 47.0619,45.6802 L45.2529,45.6802 L45.2529,46.6822 L46.7619,46.6822 C46.8229,46.6822 46.8779,46.7372 46.8779,46.7982 L46.8779,47.3052 C46.8779,47.3732 46.8229,47.4212 46.7619,47.4212 L45.2529,47.4212 L45.2529,48.4922 L47.0619,48.4922 C47.1289,48.4922 47.1779,48.5462 47.1779,48.6082 L47.1779,49.1092 C47.1779,49.1692 47.1289,49.2252 47.0619,49.2252 L44.5739,49.2252 C44.5069,49.2252 44.4579,49.1692 44.4579,49.1092 L44.4579,45.0632 Z" id="Fill-37" fill="#FEFEFE"></path>
                <g id="Group-41" transform="translate(49.000000, 44.286000)">
                    <mask id="mask-6" fill="white">
                        <use xlink:href="#path-5"></use>
                    </mask>
                    <g id="Clip-40"></g>
                    <path d="M1.4589,0.6913 C1.4649,0.6423 1.5019,0.5993 1.5679,0.5993 L1.6669,0.5993 C1.7159,0.5993 1.7519,0.6243 1.7709,0.6613 L3.1149,3.5453 L3.1339,3.5453 L4.4779,0.6613 C4.4959,0.6243 4.5259,0.5993 4.5819,0.5993 L4.6799,0.5993 C4.7469,0.5993 4.7829,0.6423 4.7899,0.6913 L5.5109,4.7983 C5.5289,4.8833 5.4799,4.9393 5.3999,4.9393 L4.8449,4.9393 C4.7899,4.9393 4.7409,4.8903 4.7289,4.8473 L4.3679,2.5313 L4.3499,2.5313 L3.2799,4.9323 C3.2679,4.9693 3.2309,5.0003 3.1759,5.0003 L3.0659,5.0003 C3.0109,5.0003 2.9799,4.9693 2.9619,4.9323 L1.8809,2.5313 L1.8619,2.5313 L1.5079,4.8473 C1.5019,4.8903 1.4529,4.9393 1.3969,4.9393 L0.8479,4.9393 C0.7689,4.9393 0.7199,4.8833 0.7309,4.7983 L1.4589,0.6913 Z" id="Fill-39" fill="#FEFEFE" mask="url(#mask-6)"></path>
                </g>
                <path d="M57.7978,47.7644 L57.1868,46.4194 L57.1688,46.4194 L56.5688,47.7644 L57.7978,47.7644 Z M55.1578,49.0664 L57.0588,44.9524 C57.0768,44.9164 57.1078,44.8854 57.1618,44.8854 L57.2238,44.8854 C57.2838,44.8854 57.3088,44.9164 57.3268,44.9524 L59.2098,49.0664 C59.2458,49.1454 59.1968,49.2254 59.1058,49.2254 L58.5738,49.2254 C58.4828,49.2254 58.4398,49.1884 58.3968,49.1024 L58.0978,48.4434 L56.2708,48.4434 L55.9708,49.1024 C55.9458,49.1634 55.8918,49.2254 55.7938,49.2254 L55.2618,49.2254 C55.1698,49.2254 55.1208,49.1454 55.1578,49.0664 L55.1578,49.0664 Z" id="Fill-42" fill="#FEFEFE"></path>
                <path d="M60.1318,45.0632 C60.1318,45.0012 60.1868,44.9472 60.2478,44.9472 L60.8168,44.9472 C60.8778,44.9472 60.9328,45.0012 60.9328,45.0632 L60.9328,49.1092 C60.9328,49.1692 60.8778,49.2252 60.8168,49.2252 L60.2478,49.2252 C60.1868,49.2252 60.1318,49.1692 60.1318,49.1092 L60.1318,45.0632 Z" id="Fill-44" fill="#FEFEFE"></path>
                <path d="M62.4111,44.9958 C62.4111,44.9338 62.4661,44.8858 62.5271,44.8858 L62.6801,44.8858 L65.2231,47.5868 L65.2281,47.5868 L65.2281,45.0628 C65.2281,45.0018 65.2771,44.9468 65.3451,44.9468 L65.9071,44.9468 C65.9681,44.9468 66.0231,45.0018 66.0231,45.0628 L66.0231,49.1768 C66.0231,49.2368 65.9681,49.2858 65.9071,49.2858 L65.7611,49.2858 L63.2051,46.4808 L63.1991,46.4808 L63.1991,49.1088 C63.1991,49.1698 63.1501,49.2248 63.0831,49.2248 L62.5271,49.2248 C62.4661,49.2248 62.4111,49.1698 62.4111,49.1088 L62.4111,44.9958 Z" id="Fill-46" fill="#FEFEFE"></path>
                <path d="M68.0761,45.6804 L67.1401,45.6804 C67.0731,45.6804 67.0241,45.6244 67.0241,45.5644 L67.0241,45.0634 C67.0241,45.0014 67.0731,44.9474 67.1401,44.9474 L69.8111,44.9474 C69.8791,44.9474 69.9281,45.0014 69.9281,45.0634 L69.9281,45.5644 C69.9281,45.6244 69.8791,45.6804 69.8111,45.6804 L68.8761,45.6804 L68.8761,49.1094 C68.8761,49.1694 68.8211,49.2254 68.7611,49.2254 L68.1921,49.2254 C68.1311,49.2254 68.0761,49.1694 68.0761,49.1094 L68.0761,45.6804 Z" id="Fill-48" fill="#FEFEFE"></path>
                <path d="M70.9296,45.0632 C70.9296,45.0012 70.9786,44.9472 71.0456,44.9472 L73.5336,44.9472 C73.6006,44.9472 73.6496,45.0012 73.6496,45.0632 L73.6496,45.5642 C73.6496,45.6252 73.6006,45.6802 73.5336,45.6802 L71.7236,45.6802 L71.7236,46.6822 L73.2336,46.6822 C73.2946,46.6822 73.3496,46.7372 73.3496,46.7982 L73.3496,47.3052 C73.3496,47.3732 73.2946,47.4212 73.2336,47.4212 L71.7236,47.4212 L71.7236,48.4922 L73.5336,48.4922 C73.6006,48.4922 73.6496,48.5462 73.6496,48.6082 L73.6496,49.1092 C73.6496,49.1692 73.6006,49.2252 73.5336,49.2252 L71.0456,49.2252 C70.9786,49.2252 70.9296,49.1692 70.9296,49.1092 L70.9296,45.0632 Z" id="Fill-50" fill="#FEFEFE"></path>
                <path d="M74.8896,44.9958 C74.8896,44.9338 74.9446,44.8858 75.0046,44.8858 L75.1586,44.8858 L77.7006,47.5868 L77.7066,47.5868 L77.7066,45.0628 C77.7066,45.0018 77.7556,44.9468 77.8226,44.9468 L78.3846,44.9468 C78.4466,44.9468 78.5006,45.0018 78.5006,45.0628 L78.5006,49.1768 C78.5006,49.2368 78.4466,49.2858 78.3846,49.2858 L78.2386,49.2858 L75.6836,46.4808 L75.6776,46.4808 L75.6776,49.1088 C75.6776,49.1698 75.6286,49.2248 75.5616,49.2248 L75.0046,49.2248 C74.9446,49.2248 74.8896,49.1698 74.8896,49.1088 L74.8896,44.9958 Z" id="Fill-52" fill="#FEFEFE"></path>
                <path d="M82.0634,47.7644 L81.4524,46.4194 L81.4334,46.4194 L80.8344,47.7644 L82.0634,47.7644 Z M79.4224,49.0664 L81.3244,44.9524 C81.3424,44.9164 81.3734,44.8854 81.4274,44.8854 L81.4894,44.8854 C81.5494,44.8854 81.5744,44.9164 81.5924,44.9524 L83.4754,49.0664 C83.5114,49.1454 83.4624,49.2254 83.3714,49.2254 L82.8394,49.2254 C82.7484,49.2254 82.7054,49.1884 82.6624,49.1024 L82.3634,48.4434 L80.5354,48.4434 L80.2364,49.1024 C80.2114,49.1634 80.1564,49.2254 80.0584,49.2254 L79.5274,49.2254 C79.4354,49.2254 79.3864,49.1454 79.4224,49.0664 L79.4224,49.0664 Z" id="Fill-54" fill="#FEFEFE"></path>
                <path d="M84.3974,44.9958 C84.3974,44.9338 84.4524,44.8858 84.5134,44.8858 L84.6664,44.8858 L87.2094,47.5868 L87.2144,47.5868 L87.2144,45.0628 C87.2144,45.0018 87.2634,44.9468 87.3314,44.9468 L87.8934,44.9468 C87.9544,44.9468 88.0094,45.0018 88.0094,45.0628 L88.0094,49.1768 C88.0094,49.2368 87.9544,49.2858 87.8934,49.2858 L87.7474,49.2858 L85.1914,46.4808 L85.1854,46.4808 L85.1854,49.1088 C85.1854,49.1698 85.1364,49.2248 85.0694,49.2248 L84.5134,49.2248 C84.4524,49.2248 84.3974,49.1698 84.3974,49.1088 L84.3974,44.9958 Z" id="Fill-56" fill="#FEFEFE"></path>
                <path d="M91.3818,44.8855 C91.9988,44.8855 92.4448,45.0805 92.8608,45.4535 C92.9158,45.5025 92.9158,45.5755 92.8668,45.6245 L92.4938,46.0105 C92.4518,46.0595 92.3908,46.0595 92.3418,46.0105 C92.0848,45.7835 91.7428,45.6495 91.4008,45.6495 C90.6178,45.6495 90.0378,46.3035 90.0378,47.0735 C90.0378,47.8375 90.6238,48.4855 91.4058,48.4855 C91.7738,48.4855 92.0848,48.3445 92.3418,48.1375 C92.3908,48.0945 92.4578,48.1005 92.4938,48.1375 L92.8728,48.5285 C92.9218,48.5715 92.9098,48.6505 92.8668,48.6935 C92.4518,49.0965 91.9258,49.2855 91.3818,49.2855 C90.1598,49.2855 89.1758,48.3145 89.1758,47.0915 C89.1758,45.8695 90.1598,44.8855 91.3818,44.8855" id="Fill-58" fill="#FEFEFE"></path>
                <path d="M94.0341,45.0632 C94.0341,45.0012 94.0831,44.9472 94.1501,44.9472 L96.6381,44.9472 C96.7051,44.9472 96.7541,45.0012 96.7541,45.0632 L96.7541,45.5642 C96.7541,45.6252 96.7051,45.6802 96.6381,45.6802 L94.8281,45.6802 L94.8281,46.6822 L96.3381,46.6822 C96.3991,46.6822 96.4541,46.7372 96.4541,46.7982 L96.4541,47.3052 C96.4541,47.3732 96.3991,47.4212 96.3381,47.4212 L94.8281,47.4212 L94.8281,48.4922 L96.6381,48.4922 C96.7051,48.4922 96.7541,48.5462 96.7541,48.6082 L96.7541,49.1092 C96.7541,49.1692 96.7051,49.2252 96.6381,49.2252 L94.1501,49.2252 C94.0831,49.2252 94.0341,49.1692 94.0341,49.1092 L94.0341,45.0632 Z" id="Fill-60" fill="#FEFEFE"></path>
                <path d="M99.5888,45.0632 C99.5888,45.0012 99.6438,44.9472 99.7048,44.9472 L100.2738,44.9472 C100.3408,44.9472 100.3898,45.0012 100.3898,45.0632 L100.3898,46.6822 L102.3818,46.6822 L102.3818,45.0632 C102.3818,45.0012 102.4308,44.9472 102.4978,44.9472 L103.0598,44.9472 C103.1208,44.9472 103.1758,45.0012 103.1758,45.0632 L103.1758,49.1092 C103.1758,49.1692 103.1208,49.2252 103.0598,49.2252 L102.4978,49.2252 C102.4308,49.2252 102.3818,49.1692 102.3818,49.1092 L102.3818,47.4212 L100.3898,47.4212 L100.3898,49.1092 C100.3898,49.1692 100.3408,49.2252 100.2738,49.2252 L99.7048,49.2252 C99.6438,49.2252 99.5888,49.1692 99.5888,49.1092 L99.5888,45.0632 Z" id="Fill-62" fill="#FEFEFE"></path>
                <g id="Group-66" transform="translate(104.000000, 44.286000)">
                    <mask id="mask-8" fill="white">
                        <use xlink:href="#path-7"></use>
                    </mask>
                    <g id="Clip-65"></g>
                    <path d="M0.5937,0.7772 C0.5937,0.7152 0.6487,0.6612 0.7087,0.6612 L1.2897,0.6612 C1.3577,0.6612 1.4057,0.7152 1.4057,0.7772 L1.4057,3.2762 C1.4057,3.7962 1.7607,4.2062 2.2917,4.2062 C2.8237,4.2062 3.1847,3.7962 3.1847,3.2832 L3.1847,0.7772 C3.1847,0.7152 3.2337,0.6612 3.3007,0.6612 L3.8807,0.6612 C3.9427,0.6612 3.9967,0.7152 3.9967,0.7772 L3.9967,3.3192 C3.9967,4.2482 3.2577,5.0002 2.2917,5.0002 C1.3327,5.0002 0.5937,4.2482 0.5937,3.3192 L0.5937,0.7772 Z" id="Fill-64" fill="#FEFEFE" mask="url(#mask-8)"></path>
                </g>
                <path d="M110.9423,48.5036 C111.2483,48.5036 111.4923,48.2656 111.4923,47.9476 C111.4923,47.6426 111.1863,47.4156 110.8693,47.4156 L110.2033,47.4156 L110.2033,48.5036 L110.9423,48.5036 Z M110.8563,46.7436 C111.1693,46.7436 111.3823,46.4986 111.3823,46.1926 C111.3823,45.8886 111.1693,45.6746 110.8563,45.6746 L110.2033,45.6746 L110.2033,46.7436 L110.8563,46.7436 Z M109.4153,45.0636 C109.4153,45.0016 109.4633,44.9466 109.5303,44.9466 L110.9293,44.9466 C111.6573,44.9466 112.2193,45.4366 112.2193,46.0776 C112.2193,46.5476 111.8353,46.9146 111.5473,47.0496 C111.8713,47.1526 112.3413,47.4826 112.3413,48.0456 C112.3413,48.7306 111.7543,49.2256 111.0093,49.2256 L109.5303,49.2256 C109.4633,49.2256 109.4153,49.1696 109.4153,49.1086 L109.4153,45.0636 Z" id="Fill-67" fill="#FEFEFE"></path>
            </g>
        </g>
    </g>
</svg>