<?xml version="1.0" encoding="utf-8"?>
<!-- Generator: Adobe Illustrator 23.0.3, SVG Export Plug-In . SVG Version: 6.00 Build 0)  -->
<svg version="1.1" id="Calque_1" xmlns="http://www.w3.org/2000/svg" xmlns:xlink="http://www.w3.org/1999/xlink" x="0px" y="0px"
	 viewBox="0 0 127 50" style="enable-background:new 0 0 127 50;" xml:space="preserve">
<style type="text/css">
	.st0{filter:url(#Adobe_OpacityMaskFilter);}
	.st1{fill-rule:evenodd;clip-rule:evenodd;fill:#FFFFFF;}
	.st2{mask:url(#mask-2_1_);fill-rule:evenodd;clip-rule:evenodd;fill:#1E1E1E;}
	.st3{fill-rule:evenodd;clip-rule:evenodd;fill:#75B845;}
	.st4{fill-rule:evenodd;clip-rule:evenodd;fill:#1E1E1E;}
	.st5{filter:url(#Adobe_OpacityMaskFilter_1_);}
	.st6{mask:url(#mask-4_1_);fill-rule:evenodd;clip-rule:evenodd;fill:#1E1E1E;}
	.st7{filter:url(#Adobe_OpacityMaskFilter_2_);}
	.st8{mask:url(#mask-6_1_);fill-rule:evenodd;clip-rule:evenodd;fill:#1E1E1E;}
	.st9{filter:url(#Adobe_OpacityMaskFilter_3_);}
	.st10{mask:url(#mask-8_1_);fill-rule:evenodd;clip-rule:evenodd;fill:#1E1E1E;}
</style>
<title>617EDE10-C966-418E-BED8-D1B230ECC04F</title>
<desc>Created with sketchtool.</desc>
<g id="Page-1">
	<g id="UI-green---Home-Page---V1" transform="translate(-68.000000, -34.000000)">
		<g id="logo_bcheck_header" transform="translate(68.000000, 34.000000)">
			<g id="Group-3" transform="translate(0.000000, 18.286000)">
				<g id="Clip-2">
				</g>
				<defs>
					<filter id="Adobe_OpacityMaskFilter" filterUnits="userSpaceOnUse" x="0" y="0.5" width="21.6" height="9.7">
						<feColorMatrix  type="matrix" values="1 0 0 0 0  0 1 0 0 0  0 0 1 0 0  0 0 0 1 0"/>
					</filter>
				</defs>
				<mask maskUnits="userSpaceOnUse" x="0" y="0.5" width="21.6" height="9.7" id="mask-2_1_">
					<g class="st0">
						<polygon id="path-1_1_" class="st1" points="0,0.5 21.6,0.5 21.6,10.2 0,10.2 						"/>
					</g>
				</mask>
				<path id="Fill-1" class="st2" d="M8.5,10.2c-0.3,0-0.6-0.2-0.6-0.5l-1-6.7l-1,3C5.8,6.2,5.6,6.4,5.3,6.4h-5C0.1,6.4,0,6.3,0,6.1
					c0-0.2,0.1-0.3,0.3-0.3h5l1-3c0.1-0.3,0.4-0.5,0.7-0.4c0.3,0,0.5,0.2,0.6,0.5l1,6.7l1-8.5c0-0.3,0.3-0.6,0.6-0.6h0
					c0.3,0,0.6,0.2,0.6,0.6l0.6,4.9l0.2-0.8c0.1-0.3,0.3-0.5,0.6-0.5c0.3,0,0.6,0.2,0.6,0.5l0.5,3.3l0.6-4.2c0-0.3,0.3-0.5,0.6-0.5
					h0c0.3,0,0.6,0.2,0.6,0.5l0.3,1.6h5.8c0.2,0,0.3,0.1,0.3,0.3c0,0.2-0.1,0.3-0.3,0.3h-5.8c-0.3,0-0.6-0.2-0.6-0.5l-0.3-1.6
					l-0.7,4.2c0,0.3-0.3,0.5-0.6,0.5h0c-0.3,0-0.6-0.2-0.6-0.5l-0.5-3.3L12,6.1c-0.1,0.3-0.3,0.5-0.7,0.5c-0.3,0-0.6-0.2-0.6-0.6
					l-0.6-4.9l-1,8.5C9.1,10,8.8,10.2,8.5,10.2L8.5,10.2z"/>
			</g>
			<path id="Fill-4" class="st3" d="M19.8,22.1c0,0.1-0.1,0.1-0.3,0.1H18c-0.2,0-0.4-0.1-0.4-0.3c-0.1-0.5-0.2-0.9-0.4-1.4
				c-0.4-0.8-0.9-1.6-1.5-2.2c-0.6-0.6-1.4-1.1-2.2-1.5c-0.8-0.4-1.8-0.5-2.7-0.5c-0.9,0-1.9,0.2-2.7,0.5c-0.8,0.4-1.6,0.9-2.2,1.5
				c-0.6,0.6-1.1,1.4-1.5,2.2C4.2,21,4,21.5,3.9,21.9c0,0.2-0.2,0.3-0.4,0.3H2c-0.2,0-0.4-0.2-0.4-0.4V1.1c0-0.2,0.2-0.4,0.4-0.4
				h1.4c0.2,0,0.3,0.1,0.3,0.1c0,0,0.1,0.1,0.1,0.3l0,16l1.3-1c0.8-0.6,1.7-1.1,2.6-1.4c0.9-0.3,2-0.5,3-0.5c1.3,0,2.5,0.2,3.6,0.7
				c1.1,0.5,2.1,1.1,2.9,2c0.8,0.8,1.5,1.8,2,2.9c0.3,0.7,0.5,1.4,0.6,2.1C19.9,22,19.8,22.1,19.8,22.1"/>
			<path id="Fill-6" class="st3" d="M19.5,27c-0.1,0.2-0.2,0.4-0.2,0.7c-0.5,1.1-1.1,2.1-2,2.9c-0.8,0.8-1.8,1.5-2.9,2
				c-1.1,0.5-2.3,0.7-3.6,0.7c-1.3,0-2.5-0.2-3.6-0.7c-1.1-0.5-2.1-1.1-2.9-2c-0.8-0.8-1.5-1.8-2-2.9C2.2,27.4,2.1,27.2,2,27
				c-0.1-0.2,0-0.3,0.1-0.4c0-0.1,0.2-0.2,0.4-0.2H4c0.2,0,0.3,0.1,0.4,0.3l0,0c0.4,0.8,0.9,1.6,1.5,2.2c0.6,0.6,1.4,1.1,2.2,1.5
				c0.8,0.4,1.8,0.5,2.7,0.5c0.9,0,1.9-0.2,2.7-0.5c0.8-0.4,1.6-0.9,2.2-1.5c0.6-0.6,1.1-1.4,1.5-2.2l0,0c0.1-0.2,0.2-0.3,0.4-0.3
				h1.5c0.2,0,0.3,0.1,0.4,0.2C19.5,26.6,19.6,26.8,19.5,27"/>
			<path id="Fill-8" class="st4" d="M39.8,28.7l1.9,1.5C41,31,40.1,31.7,39,32.2c-2.4,1.3-5.5,1.3-8,0.3c-1.2-0.5-2.2-1.2-3.1-2
				c-0.9-0.9-1.6-1.9-2.1-3.1c-0.5-1.2-0.8-2.4-0.8-3.8c0-1.3,0.3-2.5,0.8-3.7c0.5-1.2,1.2-2.2,2.1-3.1c0.9-0.9,1.9-1.6,3.1-2.1
				c1.2-0.5,2.4-0.8,3.7-0.8c1.5,0,3,0.3,4.3,1c1.1,0.6,2,1.3,2.8,2.1l-1.9,1.5c-0.6-0.6-1.2-1-1.9-1.4c-1.8-0.9-4.1-1-6-0.2
				c-0.9,0.4-1.6,0.9-2.3,1.5c-0.6,0.7-1.2,1.4-1.5,2.3c-0.4,0.9-0.6,1.8-0.6,2.8c0,1,0.2,1.9,0.6,2.8c0.4,0.9,0.9,1.6,1.5,2.3
				c0.7,0.6,1.4,1.2,2.3,1.5c1.9,0.8,4.2,0.7,6-0.2C38.7,29.7,39.3,29.2,39.8,28.7"/>
			<path id="Fill-10" class="st4" d="M63.6,22.3v11h-2.4v-11c0-0.8-0.2-1.5-0.5-2.3c-0.3-0.7-0.7-1.3-1.3-1.8
				c-0.5-0.5-1.2-1-1.9-1.3c-1.4-0.6-3.1-0.6-4.5,0c-0.7,0.3-1.3,0.7-1.9,1.3c-0.5,0.6-0.9,1.2-1.3,1.8c-0.3,0.7-0.5,1.5-0.5,2.3v11
				H47V0.5C47,0.2,47.3,0,47.5,0H49c0.3,0,0.5,0.2,0.5,0.5v15.8l1.3-0.9c0.7-0.4,1.3-0.8,2.1-1c1.5-0.5,3.3-0.5,4.8,0
				c0.8,0.3,1.5,0.6,2.1,1c1.1,0.7,2,1.7,2.7,2.9C63.2,19.5,63.6,20.9,63.6,22.3"/>
			<path id="Fill-12" class="st4" d="M106.3,28.7l1.9,1.5c-0.8,0.9-1.7,1.5-2.7,2.1c-2.4,1.3-5.5,1.3-8,0.3c-1.2-0.5-2.2-1.2-3.1-2
				c-0.9-0.9-1.5-1.9-2.1-3.1c-0.5-1.2-0.7-2.4-0.7-3.8c0-1.3,0.2-2.5,0.7-3.7c0.5-1.2,1.2-2.2,2.1-3.1c0.9-0.9,1.9-1.6,3.1-2.1
				c1.2-0.5,2.4-0.8,3.7-0.8c1.5,0,3,0.3,4.3,1c1.1,0.6,2,1.3,2.7,2.1l-1.9,1.5c-0.5-0.6-1.2-1-1.9-1.4c-1.8-0.9-4.1-1-6-0.2
				c-0.9,0.4-1.6,0.9-2.3,1.5c-0.7,0.7-1.2,1.4-1.5,2.3c-0.4,0.9-0.6,1.8-0.6,2.8c0,1,0.2,1.9,0.6,2.8c0.4,0.9,0.9,1.6,1.5,2.3
				c0.7,0.6,1.4,1.2,2.3,1.5c1.9,0.8,4.2,0.7,6-0.2C105.2,29.7,105.8,29.2,106.3,28.7"/>
			<path id="Fill-14" class="st4" d="M126.5,33.3h-3l-7.4-9.9v9.8h-2.4V1.1c0-0.2,0.2-0.4,0.4-0.4h1.6c0.2,0,0.4,0.2,0.4,0.4v20.6
				l5.5-7.6h3l-6.1,8.3L126.5,33.3z"/>
			<path id="Fill-16" class="st4" d="M70.6,21.8c0.8-3.1,3.4-5.5,6.9-5.5c3.3,0,6.1,2.2,6.9,5.5H70.6z M86.8,23.7
				c0-5.6-4.3-9.6-9.2-9.6c-5.6,0-9.4,4.5-9.4,9.6c0,5.3,4,9.6,8.8,9.6c5.4,0,8.6-3,9.5-7h-2.3C83.4,29,81,31,77.1,31
				c-3.7,0-6.7-3.2-6.8-7.2h16.4V23.7z"/>
			<path id="Fill-18" class="st4" d="M11.8,46.9c0.3,0,0.6-0.3,0.6-0.6c0-0.3-0.3-0.6-0.6-0.6H11v1.2H11.8z M10.3,45.1
				c0-0.1,0-0.1,0.1-0.1h1.4c0.8,0,1.4,0.6,1.4,1.4c0,0.8-0.6,1.4-1.4,1.4H11v1.4c0,0.1-0.1,0.1-0.1,0.1h-0.6
				c-0.1,0-0.1-0.1-0.1-0.1V45.1z"/>
			<path id="Fill-20" class="st4" d="M16,46.9c0.3,0,0.6-0.3,0.6-0.6c0-0.3-0.3-0.6-0.6-0.6h-1v1.2H16z M14.2,45.1
				c0-0.1,0.1-0.1,0.1-0.1h1.7c0.7,0,1.3,0.6,1.3,1.3c0,0.6-0.4,1-0.9,1.2l0.8,1.6c0,0.1,0,0.2-0.1,0.2h-0.6c-0.1,0-0.1,0-0.1-0.1
				l-0.8-1.6H15v1.6c0,0.1-0.1,0.1-0.1,0.1h-0.6c-0.1,0-0.1-0.1-0.1-0.1V45.1z"/>
			<path id="Fill-22" class="st4" d="M18.7,45.1c0-0.1,0-0.1,0.1-0.1h2.5c0.1,0,0.1,0.1,0.1,0.1v0.5c0,0.1,0,0.1-0.1,0.1h-1.8v1H21
				c0.1,0,0.1,0.1,0.1,0.1v0.5c0,0.1-0.1,0.1-0.1,0.1h-1.5v1.1h1.8c0.1,0,0.1,0.1,0.1,0.1v0.5c0,0.1,0,0.1-0.1,0.1h-2.5
				c-0.1,0-0.1-0.1-0.1-0.1V45.1z"/>
			<path id="Fill-24" class="st4" d="M24.1,48.5c0.8,0,1.4-0.6,1.4-1.4c0-0.8-0.6-1.4-1.4-1.4h-0.7v2.8H24.1z M22.6,45.1
				c0-0.1,0-0.1,0.1-0.1h1.4c1.2,0,2.1,1,2.1,2.1c0,1.2-1,2.1-2.1,2.1h-1.4c-0.1,0-0.1-0.1-0.1-0.1V45.1z"/>
			<path id="Fill-26" class="st4" d="M27.5,45.1c0-0.1,0.1-0.1,0.1-0.1h0.6c0.1,0,0.1,0.1,0.1,0.1v4c0,0.1-0.1,0.1-0.1,0.1h-0.6
				c-0.1,0-0.1-0.1-0.1-0.1V45.1z"/>
			<path id="Fill-28" class="st4" d="M31.7,44.9c0.6,0,1.1,0.2,1.5,0.6c0.1,0,0.1,0.1,0,0.2L32.8,46c0,0-0.1,0-0.2,0
				c-0.3-0.2-0.6-0.4-0.9-0.4c-0.8,0-1.4,0.7-1.4,1.4c0,0.8,0.6,1.4,1.4,1.4c0.4,0,0.7-0.1,0.9-0.3c0,0,0.1,0,0.2,0l0.4,0.4
				c0,0,0,0.1,0,0.2c-0.4,0.4-0.9,0.6-1.5,0.6c-1.2,0-2.2-1-2.2-2.2C29.5,45.9,30.5,44.9,31.7,44.9"/>
			<path id="Fill-30" class="st4" d="M34.9,45.7H34c-0.1,0-0.1-0.1-0.1-0.1v-0.5c0-0.1,0-0.1,0.1-0.1h2.7c0.1,0,0.1,0.1,0.1,0.1v0.5
				c0,0.1,0,0.1-0.1,0.1h-0.9v3.4c0,0.1-0.1,0.1-0.1,0.1H35c-0.1,0-0.1-0.1-0.1-0.1V45.7z"/>
			<path id="Fill-32" class="st4" d="M37.8,45.1c0-0.1,0.1-0.1,0.1-0.1h0.6c0.1,0,0.1,0.1,0.1,0.1v4c0,0.1-0.1,0.1-0.1,0.1h-0.6
				c-0.1,0-0.1-0.1-0.1-0.1V45.1z"/>
			<g id="Group-36" transform="translate(39.000000, 44.286000)">
				<g id="Clip-35">
				</g>
				<defs>
					<filter id="Adobe_OpacityMaskFilter_1_" filterUnits="userSpaceOnUse" x="0.5" y="0.7" width="4.1" height="4.3">
						<feColorMatrix  type="matrix" values="1 0 0 0 0  0 1 0 0 0  0 0 1 0 0  0 0 0 1 0"/>
					</filter>
				</defs>
				<mask maskUnits="userSpaceOnUse" x="0.5" y="0.7" width="4.1" height="4.3" id="mask-4_1_">
					<g class="st5">
						<polygon id="path-3_1_" class="st1" points="0.5,0.7 4.5,0.7 4.5,5 0.5,5 						"/>
					</g>
				</mask>
				<path id="Fill-34" class="st6" d="M0.5,0.8c0-0.1,0-0.2,0.1-0.2h0.6c0.1,0,0.1,0,0.1,0.1l1.2,2.6h0l1.2-2.6c0,0,0-0.1,0.1-0.1
					h0.6c0.1,0,0.1,0.1,0.1,0.2L2.6,4.9c0,0,0,0.1-0.1,0.1H2.5C2.4,5,2.4,5,2.4,4.9L0.5,0.8z"/>
			</g>
			<path id="Fill-37" class="st4" d="M44.5,45.1c0-0.1,0-0.1,0.1-0.1h2.5c0.1,0,0.1,0.1,0.1,0.1v0.5c0,0.1,0,0.1-0.1,0.1h-1.8v1h1.5
				c0.1,0,0.1,0.1,0.1,0.1v0.5c0,0.1-0.1,0.1-0.1,0.1h-1.5v1.1h1.8c0.1,0,0.1,0.1,0.1,0.1v0.5c0,0.1,0,0.1-0.1,0.1h-2.5
				c-0.1,0-0.1-0.1-0.1-0.1V45.1z"/>
			<g id="Group-41" transform="translate(49.000000, 44.286000)">
				<g id="Clip-40">
				</g>
				<defs>
					<filter id="Adobe_OpacityMaskFilter_2_" filterUnits="userSpaceOnUse" x="0.7" y="0.6" width="4.8" height="4.4">
						<feColorMatrix  type="matrix" values="1 0 0 0 0  0 1 0 0 0  0 0 1 0 0  0 0 0 1 0"/>
					</filter>
				</defs>
				<mask maskUnits="userSpaceOnUse" x="0.7" y="0.6" width="4.8" height="4.4" id="mask-6_1_">
					<g class="st7">
						<polygon id="path-5_1_" class="st1" points="0.7,0.6 5.5,0.6 5.5,5 0.7,5 						"/>
					</g>
				</mask>
				<path id="Fill-39" class="st8" d="M1.5,0.7c0,0,0-0.1,0.1-0.1h0.1c0,0,0.1,0,0.1,0.1l1.3,2.9h0l1.3-2.9c0,0,0-0.1,0.1-0.1h0.1
					c0.1,0,0.1,0,0.1,0.1l0.7,4.1c0,0.1,0,0.1-0.1,0.1H4.8c-0.1,0-0.1,0-0.1-0.1L4.4,2.5h0L3.3,4.9c0,0,0,0.1-0.1,0.1H3.1
					C3,5,3,5,3,4.9L1.9,2.5h0L1.5,4.8c0,0-0.1,0.1-0.1,0.1H0.8c-0.1,0-0.1-0.1-0.1-0.1L1.5,0.7z"/>
			</g>
			<path id="Fill-42" class="st4" d="M57.8,47.8l-0.6-1.3h0l-0.6,1.3H57.8z M55.2,49.1l1.9-4.1c0,0,0-0.1,0.1-0.1h0.1
				c0.1,0,0.1,0,0.1,0.1l1.9,4.1c0,0.1,0,0.2-0.1,0.2h-0.5c-0.1,0-0.1,0-0.2-0.1l-0.3-0.7h-1.8L56,49.1c0,0.1-0.1,0.1-0.2,0.1h-0.5
				C55.2,49.2,55.1,49.1,55.2,49.1L55.2,49.1z"/>
			<path id="Fill-44" class="st4" d="M60.1,45.1c0-0.1,0.1-0.1,0.1-0.1h0.6c0.1,0,0.1,0.1,0.1,0.1v4c0,0.1-0.1,0.1-0.1,0.1h-0.6
				c-0.1,0-0.1-0.1-0.1-0.1V45.1z"/>
			<path id="Fill-46" class="st4" d="M62.4,45c0-0.1,0.1-0.1,0.1-0.1h0.2l2.5,2.7h0v-2.5c0-0.1,0-0.1,0.1-0.1h0.6
				c0.1,0,0.1,0.1,0.1,0.1v4.1c0,0.1-0.1,0.1-0.1,0.1h-0.1l-2.6-2.8h0v2.6c0,0.1,0,0.1-0.1,0.1h-0.6c-0.1,0-0.1-0.1-0.1-0.1V45z"/>
			<path id="Fill-48" class="st4" d="M68.1,45.7h-0.9c-0.1,0-0.1-0.1-0.1-0.1v-0.5c0-0.1,0-0.1,0.1-0.1h2.7c0.1,0,0.1,0.1,0.1,0.1
				v0.5c0,0.1,0,0.1-0.1,0.1h-0.9v3.4c0,0.1-0.1,0.1-0.1,0.1h-0.6c-0.1,0-0.1-0.1-0.1-0.1V45.7z"/>
			<path id="Fill-50" class="st4" d="M70.9,45.1c0-0.1,0-0.1,0.1-0.1h2.5c0.1,0,0.1,0.1,0.1,0.1v0.5c0,0.1,0,0.1-0.1,0.1h-1.8v1h1.5
				c0.1,0,0.1,0.1,0.1,0.1v0.5c0,0.1-0.1,0.1-0.1,0.1h-1.5v1.1h1.8c0.1,0,0.1,0.1,0.1,0.1v0.5c0,0.1,0,0.1-0.1,0.1H71
				c-0.1,0-0.1-0.1-0.1-0.1V45.1z"/>
			<path id="Fill-52" class="st4" d="M74.9,45c0-0.1,0.1-0.1,0.1-0.1h0.2l2.5,2.7h0v-2.5c0-0.1,0-0.1,0.1-0.1h0.6
				c0.1,0,0.1,0.1,0.1,0.1v4.1c0,0.1-0.1,0.1-0.1,0.1h-0.1l-2.6-2.8h0v2.6c0,0.1,0,0.1-0.1,0.1H75c-0.1,0-0.1-0.1-0.1-0.1V45z"/>
			<path id="Fill-54" class="st4" d="M82.1,47.8l-0.6-1.3h0l-0.6,1.3H82.1z M79.4,49.1l1.9-4.1c0,0,0-0.1,0.1-0.1h0.1
				c0.1,0,0.1,0,0.1,0.1l1.9,4.1c0,0.1,0,0.2-0.1,0.2h-0.5c-0.1,0-0.1,0-0.2-0.1l-0.3-0.7h-1.8l-0.3,0.7c0,0.1-0.1,0.1-0.2,0.1h-0.5
				C79.4,49.2,79.4,49.1,79.4,49.1L79.4,49.1z"/>
			<path id="Fill-56" class="st4" d="M84.4,45c0-0.1,0.1-0.1,0.1-0.1h0.2l2.5,2.7h0v-2.5c0-0.1,0-0.1,0.1-0.1h0.6
				c0.1,0,0.1,0.1,0.1,0.1v4.1c0,0.1-0.1,0.1-0.1,0.1h-0.1l-2.6-2.8h0v2.6c0,0.1,0,0.1-0.1,0.1h-0.6c-0.1,0-0.1-0.1-0.1-0.1V45z"/>
			<path id="Fill-58" class="st4" d="M91.4,44.9c0.6,0,1.1,0.2,1.5,0.6c0.1,0,0.1,0.1,0,0.2L92.5,46c0,0-0.1,0-0.2,0
				c-0.3-0.2-0.6-0.4-0.9-0.4c-0.8,0-1.4,0.7-1.4,1.4c0,0.8,0.6,1.4,1.4,1.4c0.4,0,0.7-0.1,0.9-0.3c0,0,0.1,0,0.2,0l0.4,0.4
				c0,0,0,0.1,0,0.2c-0.4,0.4-0.9,0.6-1.5,0.6c-1.2,0-2.2-1-2.2-2.2C89.2,45.9,90.2,44.9,91.4,44.9"/>
			<path id="Fill-60" class="st4" d="M94,45.1c0-0.1,0-0.1,0.1-0.1h2.5c0.1,0,0.1,0.1,0.1,0.1v0.5c0,0.1,0,0.1-0.1,0.1h-1.8v1h1.5
				c0.1,0,0.1,0.1,0.1,0.1v0.5c0,0.1-0.1,0.1-0.1,0.1h-1.5v1.1h1.8c0.1,0,0.1,0.1,0.1,0.1v0.5c0,0.1,0,0.1-0.1,0.1h-2.5
				c-0.1,0-0.1-0.1-0.1-0.1V45.1z"/>
			<path id="Fill-62" class="st4" d="M99.6,45.1c0-0.1,0.1-0.1,0.1-0.1h0.6c0.1,0,0.1,0.1,0.1,0.1v1.6h2v-1.6c0-0.1,0-0.1,0.1-0.1
				h0.6c0.1,0,0.1,0.1,0.1,0.1v4c0,0.1-0.1,0.1-0.1,0.1h-0.6c-0.1,0-0.1-0.1-0.1-0.1v-1.7h-2v1.7c0,0.1,0,0.1-0.1,0.1h-0.6
				c-0.1,0-0.1-0.1-0.1-0.1V45.1z"/>
			<g id="Group-66" transform="translate(104.000000, 44.286000)">
				<g id="Clip-65">
				</g>
				<defs>
					<filter id="Adobe_OpacityMaskFilter_3_" filterUnits="userSpaceOnUse" x="0.6" y="0.7" width="3.4" height="4.3">
						<feColorMatrix  type="matrix" values="1 0 0 0 0  0 1 0 0 0  0 0 1 0 0  0 0 0 1 0"/>
					</filter>
				</defs>
				<mask maskUnits="userSpaceOnUse" x="0.6" y="0.7" width="3.4" height="4.3" id="mask-8_1_">
					<g class="st9">
						<polygon id="path-7_1_" class="st1" points="0.6,0.7 4,0.7 4,5 0.6,5 						"/>
					</g>
				</mask>
				<path id="Fill-64" class="st10" d="M0.6,0.8c0-0.1,0.1-0.1,0.1-0.1h0.6c0.1,0,0.1,0.1,0.1,0.1v2.5c0,0.5,0.4,0.9,0.9,0.9
					c0.5,0,0.9-0.4,0.9-0.9V0.8c0-0.1,0-0.1,0.1-0.1h0.6C3.9,0.7,4,0.7,4,0.8v2.5C4,4.2,3.3,5,2.3,5c-1,0-1.7-0.8-1.7-1.7V0.8z"/>
			</g>
			<path id="Fill-67" class="st4" d="M110.9,48.5c0.3,0,0.6-0.2,0.6-0.6c0-0.3-0.3-0.5-0.6-0.5h-0.7v1.1H110.9z M110.9,46.7
				c0.3,0,0.5-0.2,0.5-0.6c0-0.3-0.2-0.5-0.5-0.5h-0.7v1.1H110.9z M109.4,45.1c0-0.1,0-0.1,0.1-0.1h1.4c0.7,0,1.3,0.5,1.3,1.1
				c0,0.5-0.4,0.8-0.7,1c0.3,0.1,0.8,0.4,0.8,1c0,0.7-0.6,1.2-1.3,1.2h-1.5c-0.1,0-0.1-0.1-0.1-0.1V45.1z"/>
		</g>
	</g>
</g>
</svg>
