<?xml version="1.0" encoding="UTF-8"?>
<svg width="134px" height="128px" viewBox="0 0 134 128" version="1.1" xmlns="http://www.w3.org/2000/svg" xmlns:xlink="http://www.w3.org/1999/xlink">
    <!-- Generator: sketchtool 53.2 (72643) - https://sketchapp.com -->
    <title>1CBE5B4D-EA34-4FB4-87A9-B7DB791A8D0E</title>
    <desc>Created with sketchtool.</desc>
    <g id="Page-1" stroke="none" stroke-width="1" fill="none" fill-rule="evenodd">
        <g id="UI-green---Home-Page---V1" transform="translate(-653.000000, -2314.000000)">
            <g id="records-of-data" transform="translate(653.000000, 2314.000000)">
                <path d="M68.5232307,64.1734533 C70.4595819,65.7923053 72.1479714,67.7089084 73.7230515,69.6870751 C76.7653348,73.5051808 79.4548839,77.6016779 81.7439692,81.911131 C82.77268,83.8432218 83.727274,85.8295195 85.0388706,87.5792426 C86.0823272,88.9773949 88.0536026,91.3737296 90.0403998,91.0291282 C91.8991417,90.7077584 93.7349889,88.1445437 95.2635034,87.0952519 C98.6278651,84.7914563 102.582445,83.4324105 106.679827,83.4405415 C112.675142,83.4444134 119.311123,86.3135102 122.776376,91.3470133 C129.726286,101.432992 126.280435,109.804482 125.089133,113.532759 C122.694887,121.024935 114.588211,125.376979 106.719019,124.974299 C98.8490516,124.57549 91.6356583,118.419516 90.0175051,110.722128 C89.4428084,108.007521 89.5087763,105.200375 89.1013277,102.45518 C88.6356721,99.3034329 87.52974,96.2372551 85.8149633,93.5497517 C84.3248654,91.2192397 82.395887,89.1980947 80.4828186,87.1920501 C74.9221147,81.3648023 69.2104607,75.4291406 62.0316036,71.7628143 C61.5228748,71.5033953 60.9644761,71.2943114 60.3630043,71.1235594 C55.9004715,73.7254934 50.7084116,75.2126999 45.1706024,75.2126999 C28.5082809,75.2126999 15,61.7302683 15,45.1042204 C15,28.4785597 28.5082809,15 45.1706024,15 C61.8375804,15 75.3450852,28.4785597 75.3450852,45.1042204" id="Fill-1" fill="#9CE557"></path>
                <path d="M101.815088,116 C101.028795,116 100.38025,115.460823 100.268257,114.710028 L97.8945524,98.7782346 L95.482996,105.899721 C95.2726677,106.520694 94.6752417,106.937927 93.9962598,106.937927 L81.7847314,106.937927 C81.3515878,106.937927 81,106.599863 81,106.18338 C81,105.766897 81.3515878,105.428832 81.7847314,105.428832 L93.9919674,105.428832 L96.4097673,98.2882102 C96.6396065,97.6090801 97.2916633,97.194473 98.0315194,97.2556322 C98.7713756,97.3171667 99.3391449,97.8334557 99.4448944,98.5407266 L101.815868,114.453009 L104.239521,94.3304948 C104.331613,93.5646911 104.980548,93.0048777 105.782839,93 L105.793375,93 C106.590594,93 107.24148,93.5500579 107.343717,94.3113591 L108.884694,105.814924 L109.409539,103.842069 C109.596454,103.138926 110.254364,102.674791 111.007488,102.713062 C111.761002,102.751334 112.3635,103.28038 112.471982,103.998532 L113.632104,111.681332 L115.230833,101.775037 C115.35024,101.034373 115.977713,100.51133 116.756982,100.501949 L116.777663,100.501949 C117.547176,100.501949 118.178161,101.008483 118.314738,101.739392 L119.005426,105.428832 L133.215659,105.428832 C133.648802,105.428832 134,105.766897 134,106.18338 C134,106.599863 133.648802,106.937927 133.215659,106.937927 L119.000744,106.937927 C118.243328,106.937927 117.595563,106.417511 117.461718,105.70086 L116.776493,102.039185 L115.177373,111.949608 C115.056405,112.700028 114.421908,113.222695 113.632884,113.222695 L113.62469,113.222695 C112.831374,113.218943 112.198438,112.689522 112.084494,111.934974 L110.92281,104.242794 L110.397965,106.217149 C110.209489,106.92592 109.546896,107.389305 108.787529,107.345405 C108.027772,107.30038 107.429565,106.762704 107.332011,106.036673 L105.792985,94.5496174 L103.369332,114.669505 C103.27802,115.430056 102.633768,115.989869 101.83772,116 L101.815088,116 Z" id="Fill-3" fill="#1C420C"></path>
                <path d="M128.786374,100.691747 C128.690729,100.804903 128.476101,101 128.124509,101 L124.543553,101 C124.126157,101 123.766914,100.695649 123.686572,100.27424 C123.468501,99.1309725 123.13183,98.003313 122.68421,96.9224766 C121.819578,94.8349407 120.610622,92.985423 119.084125,91.4246485 C117.561453,89.8677759 115.751846,88.6269602 113.708864,87.7412206 C111.654405,86.8515792 109.458009,86.3989546 107.174384,86.3989546 C104.886551,86.3989546 102.686711,86.8515792 100.636078,87.7412206 C98.5930963,88.6269602 96.7911407,89.8677759 95.2646432,91.4285504 C93.7496232,92.9772289 92.5253646,94.7994331 91.6301255,96.836634 C91.1557253,97.9209821 90.7999251,99.0646396 90.5742025,100.223515 C90.4862089,100.667945 90.0577184,101 89.5756665,101 L85.9488004,101 C85.4246647,101 85,100.566885 85,100.028418 L85,48.9598763 C85,48.429213 85.4204563,48 85.9411488,48 L89.30786,48 C89.6521827,48 89.8740796,48.171295 89.9773764,48.2770375 C90.0806732,48.3862917 90.2528346,48.6165059 90.2528346,48.9637783 L90.1571894,88.3768461 L93.5349954,85.7395274 C95.429153,84.2642053 97.5520939,83.0936244 99.8441356,82.2668041 C102.116666,81.4473975 104.569009,81.0337922 107.128474,81.0337922 C110.192564,81.0337922 113.092527,81.6190827 115.759497,82.7818597 C118.433355,83.9446367 120.801913,85.5717441 122.806636,87.6163587 C124.803708,89.6531694 126.39907,92.0723699 127.546812,94.8037252 C128.231632,96.4425385 128.717127,98.182802 128.989142,99.9694986 C129.042703,100.324965 128.885845,100.574689 128.786374,100.691747" id="Fill-5" fill="#1C420C"></path>
                <path d="M128.948215,113.25261 C128.769327,113.766915 128.563489,114.281219 128.341636,114.780915 C127.171834,117.401508 125.543094,119.723931 123.502677,121.685255 C121.457574,123.64583 119.035946,125.207848 116.307319,126.325982 C113.590409,127.437 110.624305,128 107.495328,128 C104.36596,128 101.404153,127.437 98.6868527,126.322611 C95.9543193,125.207848 93.5365975,123.64583 91.4883692,121.685255 C89.4432656,119.723931 87.8184316,117.401508 86.652535,114.780915 C86.4310733,114.28534 86.2287502,113.774407 86.0502528,113.263473 C85.9178444,112.890762 86.0772032,112.600084 86.1822706,112.458491 C86.271324,112.335628 86.5318442,112.055813 86.9946876,112.055813 L90.7029026,112.055813 C91.0954406,112.055813 91.4532166,112.290678 91.6164811,112.655897 L91.6711631,112.771644 C92.5839605,114.765932 93.8322705,116.533221 95.3828933,118.024067 C96.9417185,119.522779 98.7880143,120.712085 100.867489,121.562017 C102.959073,122.415695 105.205718,122.847966 107.541808,122.847966 C109.878288,122.847966 112.121027,122.415695 114.216126,121.562017 C116.299507,120.712085 118.146193,119.522779 119.700722,118.024067 C121.259547,116.529101 122.495358,114.755069 123.381987,112.742052 L123.432372,112.622185 C123.595637,112.245727 123.969036,112 124.381103,112 L127.968628,112 C128.447094,112 128.715036,112.290678 128.808386,112.417662 C128.921265,112.562626 129.084529,112.864915 128.948215,113.25261" id="Fill-7" fill="#1C420C"></path>
                <path d="M30.529599,30 L23.470401,30 C22.6584182,30 22,30.6423556 22,31.4349176 L22,50.5650824 C22,51.3576444 22.6584182,52 23.470401,52 L30.529599,52 C31.3415818,52 32,51.3576444 32,50.5650824 L32,31.4349176 C32,30.6423556 31.3415818,30 30.529599,30" id="Fill-9" fill="#1C420C"></path>
                <path d="M43.5292011,32 L36.470401,32 C35.6584182,32 35,32.6516044 35,33.4564579 L35,50.5435421 C35,51.3480017 35.6584182,52 36.470401,52 L43.5292011,52 C44.3415818,52 45,51.3480017 45,50.5435421 L45,33.4564579 C45,32.6516044 44.3415818,32 43.5292011,32" id="Fill-11" fill="#1C420C"></path>
                <path d="M57.5295403,25 L50.4704595,25 C49.6580465,25 49,25.652231 49,26.4569777 L49,50.5426282 C49,51.3473749 49.6580465,52 50.4704595,52 L57.5295403,52 C58.3423511,52 58.9999998,51.3473749 58.9999998,50.5426282 L58.9999998,26.4569777 C59.0003977,25.652231 58.3423511,25 57.5295403,25" id="Fill-13" fill="#1C420C"></path>
                <path d="M60.5464946,52 L19.4542919,52 C18.6512459,52 18,51.3285096 18,50.5 C18,49.6714904 18.6512459,49 19.4542919,49 L60.5464946,49 C61.3495406,49 62,49.6718961 62,50.5 C62,51.3285096 61.3495406,52 60.5464946,52" id="Fill-15" fill="#1C420C"></path>
                <path d="M64,106.033918 C64,106.064579 63.9926441,106.072628 63.9742543,106.07991 L54.0772371,111.989888 C54.0584795,112.001386 54.0511236,112.005219 54.0253779,111.989888 C54,111.974558 54,111.963443 54,111.94428 L54.0364118,100.054951 C54.0364118,100.036171 54.0364118,100.02429 54.0621575,100.008959 C54.0695134,100.005509 54.0772371,100.001677 54.0842252,100.001677 C54.0952591,99.9974608 54.102615,100.001677 54.1136489,100.008959 L63.9742543,105.988309 C63.9926441,105.999424 64,106.00364 64,106.033918" id="Fill-17" fill="#FFFFFF"></path>
                <path d="M64.5631953,106.402878 L54.1027827,112.512939 C54.0829574,112.524827 54.0755714,112.528789 54.0479714,112.512939 C54.0211488,112.49709 54.0211488,112.485599 54.0211488,112.465787 L54.0596334,100.173944 C54.0596334,100.154132 54.0596334,100.142245 54.0872334,100.126395 C54.0946193,100.122433 54.1027827,100.118866 54.1101687,100.118866 C54.1222194,100.114508 54.1296053,100.118866 54.1412673,100.126395 L64.5631953,106.308176 C64.5830207,106.319667 64.5904066,106.324026 64.5904066,106.355329 C64.5904066,106.387028 64.5830207,106.394953 64.5631953,106.402878 M66.2775072,103.308223 L55.8559679,97.1268383 C54.7749018,96.4853215 53.4804214,96.4809628 52.3958567,97.1153473 C51.3074047,97.7489392 50.6582208,98.8861556 50.6547222,100.162057 L50.6391729,104.247715 L38.5670739,104.247715 C36.7497478,104.247715 35.2760615,102.745559 35.2760615,100.892728 L35.2760615,83.2710262 C35.2760615,82.1326211 34.4585563,81.1170513 33.3463916,81.0100658 C32.070959,80.8872305 31,81.9047816 31,83.1794941 L31,101.986358 C31,105.642092 33.9081105,108.606383 37.4945599,108.606383 L50.6236236,108.606383 L50.6115729,112.453899 C50.6080743,113.729404 51.2533708,114.874546 52.3336595,115.516459 C53.1154013,115.9761 54.0055995,116.110823 54.8491498,115.908739 C55.1756854,115.82949 55.4944464,115.703089 55.7933819,115.528346 L66.2580706,109.418285 C67.3426353,108.784693 67.9918192,107.643118 67.9999825,106.367216 C68.0038699,105.091315 67.3581846,103.94657 66.2775072,103.308223" id="Fill-19" fill="#1C420C"></path>
                <path d="M116.998496,57.0841943 C117.002329,57.0952241 116.998496,57.1025773 116.990831,57.1172837 L111.011969,66.9742638 C111.000855,66.9889702 110.996639,67 110.965978,67 C110.935317,67 110.927652,66.9889702 110.92037,66.9742638 L105.010111,57.0768411 C104.998614,57.058458 104.994781,57.0511048 105.010111,57.0253686 C105.025442,57 105.03694,57 105.056103,57 L116.94484,57.040075 C116.964003,57.040075 116.975501,57.040075 116.990831,57.0658112 C116.994664,57.0731645 116.998496,57.0805177 116.998496,57.0841943" id="Fill-21" fill="#FFFFFF"></path>
                <path d="M110.47872,67.5823648 C110.447647,67.5823648 110.439878,67.571052 110.432498,67.5554482 L104.442674,57.0541052 C104.43141,57.0342104 104.427137,57.0264085 104.442674,56.9991019 C104.458211,56.9721854 104.469863,56.9721854 104.489284,56.9721854 L116.53846,57.0147057 C116.557493,57.0147057 116.569534,57.0147057 116.58507,57.0420123 C116.588566,57.0498142 116.59245,57.0580062 116.59245,57.061517 C116.596335,57.07361 116.59245,57.0810217 116.58507,57.0966255 L110.525331,67.5554482 C110.514066,67.571052 110.509794,67.5823648 110.47872,67.5823648 M119.542112,55.3505627 C118.910152,54.2364529 117.683522,53.596698 116.407174,53.5935772 L112.517925,53.5818744 L112.517925,22.9824744 C112.517925,20.7827317 110.742846,19 108.552934,19 L84.2265798,19 C83.1102608,19 82.1147404,19.8203687 82.009867,20.936819 C81.8894568,22.216719 82.8869193,23.2910391 84.1364664,23.2910391 L106.845051,23.2910391 C107.618396,23.2910391 108.245305,23.9210417 108.245305,24.6977198 L108.245305,53.5662706 L104.500937,53.5545678 C103.250613,53.5506668 102.127691,54.1947128 101.498839,55.2787853 C101.048272,56.0632653 100.916209,56.9565816 101.114303,57.8065975 C101.191987,58.130766 101.315893,58.4506434 101.487186,58.754527 L107.476622,69.2519691 C108.097706,70.3442336 109.216355,70.9956913 110.467456,70.9999824 C111.71778,71.0038833 112.840314,70.3598374 113.46567,69.2757648 L119.525021,58.8134313 C120.152708,57.7316993 120.158146,56.4369758 119.542112,55.3505627" id="Fill-23" fill="#1C420C"></path>
                <path d="M40.3901473,74.8930592 C21.1259555,74.8930592 5.45286463,59.3106528 5.45286463,40.1570605 C5.45286463,21.0038554 21.1259555,5.42144907 40.3901473,5.42144907 C59.6543391,5.42144907 75.32743,21.0038554 75.32743,40.1570605 C75.32743,59.3106528 59.6543391,74.8930592 40.3901473,74.8930592 M81.9059217,75.2957954 L81.6449631,75.0363403 C80.6517628,74.0488621 79.0470626,74.0527346 78.0538623,75.0363403 L77.6951417,75.3964794 L69.8511959,67.5973377 C76.6283277,60.4139177 80.7802946,50.7602531 80.7802946,40.1570605 C80.7802946,18.0143135 62.6612044,0 40.3901473,0 C18.1187007,0 0,18.0143135 0,40.1570605 C0,62.2998075 18.1187007,80.3145082 40.3901473,80.3145082 C50.9644203,80.3145082 60.6008006,76.2526811 67.8063717,69.6148913 L75.6584968,77.4182927 L75.2962707,77.781917 C74.3069653,78.7697825 74.3069653,80.3648503 75.3001657,81.3527157 L80.5189466,86.5724094 C81.4307435,87.4828256 82.9964946,86.8434819 82.9964946,85.557824 L83,77.9213257 C83,76.93772 82.6070043,75.9928388 81.9059217,75.2957954" id="Fill-25" fill="#1C420C"></path>
            </g>
        </g>
    </g>
</svg>